<svg xmlns="http://www.w3.org/2000/svg" viewBox="0 0 792 612">
    <style>
    .st1 {
        opacity: 0.59;
    }
    .st2 {
        fill: #f1f2f2;
    }
    .st16 {
        fill: url(#SVGID_15_);
    }
    .st17 {
        fill: url(#SVGID_16_);
    }
    .st18 {
        opacity: 0.68;
        fill: url(#SVGID_17_);
    }
    .st19 {
        opacity: 0.82;
        fill: url(#SVGID_18_);
    }
    .st20 {
        opacity: 0.92;
        fill: url(#SVGID_19_);
    }
    .st21,
    .st22 {
        opacity: 0.79;
        fill: url(#SVGID_20_);
    }
    .st22 {
        fill: url(#SVGID_21_);
    }
    .st23,
    .st24 {
        opacity: 0.79;
        fill: url(#SVGID_22_);
    }
    .st24 {
        fill: url(#SVGID_23_);
    }
    .st25 {
        fill: url(#SVGID_24_);
    }
    .st26 {
        fill: url(#SVGID_25_);
    }
    .st27 {
        fill: url(#SVGID_26_);
    }
    .st28 {
        fill: url(#SVGID_27_);
    }
    .st29 {
        fill: url(#SVGID_28_);
    }
    .st30 {
        fill: url(#SVGID_29_);
    }
    .st31 {
        fill: url(#SVGID_30_);
    }
    .st32 {
        opacity: 0.68;
        fill: url(#SVGID_31_);
    }
    .st33 {
        opacity: 0.82;
        fill: url(#SVGID_32_);
    }
    .st34 {
        opacity: 0.92;
        fill: url(#SVGID_33_);
    }
    .st35,
    .st36 {
        opacity: 0.79;
        fill: url(#SVGID_34_);
    }
    .st36 {
        fill: url(#SVGID_35_);
    }
    .st37,
    .st38 {
        opacity: 0.79;
        fill: url(#SVGID_36_);
    }
    .st38 {
        fill: url(#SVGID_37_);
    }
    .st39 {
        fill: url(#SVGID_38_);
    }
    .st40 {
        fill: url(#SVGID_39_);
    }
    .st41 {
        fill: url(#SVGID_40_);
    }
    .st42 {
        fill: url(#SVGID_41_);
    }
    .st43 {
        fill: url(#SVGID_42_);
    }
    .st44 {
        fill: url(#SVGID_43_);
    }
    .st45 {
        fill: url(#SVGID_44_);
    }
    .st46 {
        opacity: 0.68;
        fill: url(#SVGID_45_);
    }
    .st47 {
        opacity: 0.82;
        fill: url(#SVGID_46_);
    }
    .st48 {
        opacity: 0.92;
        fill: url(#SVGID_47_);
    }
    .st49,
    .st50 {
        opacity: 0.79;
        fill: url(#SVGID_48_);
    }
    .st50 {
        fill: url(#SVGID_49_);
    }
    .st51,
    .st52 {
        opacity: 0.79;
        fill: url(#SVGID_50_);
    }
    .st52 {
        fill: url(#SVGID_51_);
    }
    .st53 {
        fill: url(#SVGID_52_);
    }
    .st54 {
        fill: url(#SVGID_53_);
    }
    .st55 {
        fill: url(#SVGID_54_);
    }
    .st56 {
        fill: url(#SVGID_55_);
    }
    .st57 {
        fill: url(#SVGID_56_);
    }
    .st58 {
        fill: url(#SVGID_57_);
    }
    .st59 {
        fill: url(#SVGID_58_);
    }
    .st60 {
        opacity: 0.68;
        fill: url(#SVGID_59_);
    }
    .st61 {
        opacity: 0.82;
        fill: url(#SVGID_60_);
    }
    .st62 {
        opacity: 0.92;
        fill: url(#SVGID_61_);
    }
    .st63,
    .st64 {
        opacity: 0.79;
        fill: url(#SVGID_62_);
    }
    .st64 {
        fill: url(#SVGID_63_);
    }
    .st65,
    .st66 {
        opacity: 0.79;
        fill: url(#SVGID_64_);
    }
    .st66 {
        fill: url(#SVGID_65_);
    }
    .st67 {
        fill: url(#SVGID_66_);
    }
    .st68 {
        fill: url(#SVGID_67_);
    }
    .st69 {
        fill: url(#SVGID_68_);
    }
    .st70 {
        fill: url(#SVGID_69_);
    }
    .st71 {
        fill: url(#SVGID_70_);
    }
    </style>
    <linearGradient
    id="t"
    x1="396"
    x2="396"
    y1="-.027"
    y2="455.97"
    gradientUnits="userSpaceOnUse"
    >
    <stop stop-color="#0088BC" offset="0" />
    <stop stop-color="#D5EEF1" offset=".995" />
    </linearGradient>
    <path style="fill: url(#t)" d="M0 0h792v456H0z" />
    <radialGradient
    id="u"
    cx="595.71"
    cy="185.29"
    r="55.708"
    gradientUnits="userSpaceOnUse"
    >
    <stop stop-color="#F4F3B0" offset=".01" />
    <stop stop-color="#F9ED32" offset="1" />
    </radialGradient>
    <circle cx="595.7" cy="185.3" r="55.7" style="fill: url(#u)" />
    <linearGradient
    id="o"
    x1="399.86"
    x2="399.86"
    y1="287.97"
    y2="488.35"
    gradientTransform="matrix(-1 0 0 1 795.86 0)"
    gradientUnits="userSpaceOnUse"
    >
    <stop stop-color="#ADD1EF" offset="0" />
    <stop stop-color="#4DB3E6" offset=".995" />
    </linearGradient>
    <path
    d="M792 379.6c-3.6-4.3-7.2-8.5-10.7-12.8.1 1 1 12.2-5.1 20.1-5.5 7.1-12.4 5.9-13.4 5.7-2.1.2-14.7 1.3-23.7-11.5-3.5-5-5.3-10.5-6.2-14.3l-16.5 12.9c-14.4-18.8-33.5-40.3-57.6-60.2-16.6-13.6-32.3-23.8-46.3-31.5-5 12.7-18.5 42.4-45.2 63-25.4 19.6-49.2 20.5-59.6 20.1-3.1-1.1-9.1-3.9-14.4-11.5-2.5-3.5-4.1-7.1-5.1-10-8.4 12.9-22.1 31-42.2 45.8-24 17.8-75.9 27.1-82.3 20.1-8.6-9.6-8.3-24.2-8.2-25.8-8.2 10-16.5 20.1-24.7 30.1-11.7-13.1-27.4-28.2-47.3-41.5-18-12.1-34.7-19.6-48.3-24.3-11.8 12.5-48.1 48.7-91.5 55.9-19.7 3.3-42.1 10.5-52.4-7.2-8.1-13.7-5-34.9-3.1-44.4-15.9 11.6-33 26.1-50.4 44.4-5.4 5.7-10.6 11.5-15.4 17.2-5.9-1.8-22-12.7-22-12.7L0 488.3s525.6-2.8 792-4.2"
    style="fill: url(#o)"
    />
    <linearGradient
    id="p"
    x1="396"
    x2="396"
    y1="326.97"
    y2="466.96"
    gradientUnits="userSpaceOnUse"
    >
    <stop stop-color="#BACFEB" offset="0" />
    <stop stop-color="#5783C3" offset="1" />
    </linearGradient>
    <path
    d="M0 392.3c4-3.4 8-6.9 12.1-10.3-.1.7-1 8.5 5 14 5.4 4.9 12.1 4.1 13 4 2.1.2 14.3.9 23-8 3.4-3.5 5.1-7.3 6-10 5.3 3 10.7 6 16 9 14-13.2 32.6-28.2 56-42 16.1-9.5 31.4-16.6 45-22 4.9 8.9 18 29.6 44 44 24.7 13.7 47.8 14.3 58 14 3-.8 8.9-2.7 14-8 2.4-2.5 4-5 5-7 8.1 9 21.5 21.6 41 32 23.3 12.4 73.8 19 80 14 8.3-6.7 8-16.9 8-18l24 21c11.4-9.1 26.7-19.7 46-29 17.5-8.5 33.7-13.7 47-17 11.5 8.7 46.8 34 89 39 19.2 2.3 40.9 7.4 51-5 7.8-9.6 4.8-24.3 3-31 15.5 8.1 32.1 18.2 49 31 5.3 4 10.3 8 15 12 5.8-1.3 13.5-3.7 21.4-8.9 8.4-5.5 20.5-10.2 20.6-10.4V467L0 464"
    style="fill: url(#p)"
    />
    <linearGradient
    id="q"
    x1="396"
    x2="396"
    y1="392.83"
    y2="555.35"
    gradientUnits="userSpaceOnUse"
    >
    <stop stop-color="#88C03F" offset="0" />
    <stop stop-color="#5C892A" offset=".967" />
    </linearGradient>
    <path
    d="M.5 417.9c19.2-8.6 43.3-17 71.5-21.6 80.5-13.2 135.5 14 225 35.7 42.3 10.2 100.2 15.8 216 27 123 11.9 279 20.6 279 20.6V518S12.7 552.2 0 555.4l.5-137.5z"
    style="fill: url(#q)"
    />
    <linearGradient
    id="r"
    x1="396.26"
    x2="396.26"
    y1="445.86"
    y2="578.58"
    gradientUnits="userSpaceOnUse"
    >
    <stop stop-color="#88C03F" offset="0" />
    <stop stop-color="#48701F" offset=".997" />
    </linearGradient>
    <path
    d="M.5 452.9c69.9 20.9 191.2 53.6 334 24.1 15.1-3.1 9.9-2.6 37-9C503 436.8 792 447.7 792 447.7v95.8c0-.7-537.3 103.9-790.3-44.6-1.6-33.2-.2-3.2-1-39.9-.1-1.9-.1-3.9-.2-6.1z"
    style="fill: url(#r)"
    />
    <linearGradient
    id="s"
    x1="396.5"
    x2="396.5"
    y1="500.68"
    y2="612.03"
    gradientUnits="userSpaceOnUse"
    >
    <stop stop-color="#8DC63F" offset="0" />
    <stop stop-color="#61823E" offset=".969" />
    </linearGradient>
    <path
    d="M792 500.7c-116.6 14-248.1 23.5-392.2 23.6-146.7.1-280.5-9.4-398.8-23.6v111.4h791V500.7z"
    style="fill: url(#s)"
    />
</svg>