<svg xmlns="http://www.w3.org/2000/svg" viewBox="0 0 1016 571.5">
  <defs>
    <linearGradient
      id="day"
      x2="396"
      gradientUnits="userSpaceOnUse"
      x1="396"
      y2="456"
      y1="-.027"
    >
      <stop stop-color="#a5c2e0" offset="0" />
      <stop stop-color="cce6ee" offset="1.9" />
    </linearGradient>
  </defs>
  <g style="display: inline">
    <rect style="fill: url(#day)" width="1016" height="571.5" ry=".451" />
    <path
      style="fill: #3096b4"
      d="M0 571.5V377.976s151.19 46.69 380.199-57.808c229.009-104.5 162.307-126.733 320.168-77.819 157.86 48.915 202.328 80.042 229.008 37.798C956.056 237.902 1016 39.777 1016 97.829V571.5Z"
    />
    <g style="fill: #4bafca; fill-opacity: 1">
      <path
        style="fill: #4bafca"
        d="M-82.265 66.702-69.75 88.38l12.515 21.678h-50.063L-94.78 88.38z"
        transform="matrix(.30807 0 0 .72473 625.171 388.93)"
      />
      <path
        style="fill: #4bafca"
        d="M-61.826 308.79a2.5 2.5 0 0 0-2.5 2.5v44.022a2.5 2.5 0 0 0 2.5 2.5 2.5 2.5 0 0 0 2.5-2.5V311.29a2.5 2.5 0 0 0-2.5-2.5z"
        transform="matrix(.41143 0 0 .41143 625.265 328.974)"
      />
    </g>
    <g style="fill: #4bafca; fill-opacity: 1">
      <path
        style="fill: #4bafca"
        d="M-82.265 66.702-69.75 88.38l12.515 21.678h-50.063L-94.78 88.38z"
        transform="matrix(.30807 0 0 .72473 546.24 432.286)"
      />
      <path
        style="fill: #4bafca"
        d="M-61.826 308.79a2.5 2.5 0 0 0-2.5 2.5v44.022a2.5 2.5 0 0 0 2.5 2.5 2.5 2.5 0 0 0 2.5-2.5V311.29a2.5 2.5 0 0 0-2.5-2.5z"
        transform="matrix(.41143 0 0 .41143 546.335 372.33)"
      />
    </g>
    <g style="fill: #4bafca; fill-opacity: 1">
      <path
        style="fill: #4bafca"
        d="M-82.265 66.702-69.75 88.38l12.515 21.678h-50.063L-94.78 88.38z"
        transform="matrix(.30807 0 0 .72473 525.119 433.398)"
      />
      <path
        style="fill: #4bafca"
        d="M-61.826 308.79a2.5 2.5 0 0 0-2.5 2.5v44.022a2.5 2.5 0 0 0 2.5 2.5 2.5 2.5 0 0 0 2.5-2.5V311.29a2.5 2.5 0 0 0-2.5-2.5z"
        transform="matrix(.41143 0 0 .41143 525.213 373.441)"
      />
    </g>
    <g style="fill: #4bafca; fill-opacity: 1">
      <path
        style="fill: #4bafca"
        d="M-82.265 66.702-69.75 88.38l12.515 21.678h-50.063L-94.78 88.38z"
        transform="matrix(.30807 0 0 .72473 694.096 343.35)"
      />
      <path
        style="fill: #4bafca"
        d="M-61.826 308.79a2.5 2.5 0 0 0-2.5 2.5v44.022a2.5 2.5 0 0 0 2.5 2.5 2.5 2.5 0 0 0 2.5-2.5V311.29a2.5 2.5 0 0 0-2.5-2.5z"
        transform="matrix(.41143 0 0 .41143 694.19 283.394)"
      />
    </g>
    <g style="fill: #4bafca; fill-opacity: 1">
      <path
        style="fill: #4bafca"
        d="M-82.265 66.702-69.75 88.38l12.515 21.678h-50.063L-94.78 88.38z"
        transform="matrix(.30807 0 0 .72473 739.675 320.005)"
      />
      <path
        style="fill: #4bafca"
        d="M-61.826 308.79a2.5 2.5 0 0 0-2.5 2.5v44.022a2.5 2.5 0 0 0 2.5 2.5 2.5 2.5 0 0 0 2.5-2.5V311.29a2.5 2.5 0 0 0-2.5-2.5z"
        transform="matrix(.41143 0 0 .41143 739.77 260.049)"
      />
    </g>
    <g style="fill: #4bafca; fill-opacity: 1">
      <path
        style="fill: #4bafca"
        d="M-82.265 66.702-69.75 88.38l12.515 21.678h-50.063L-94.78 88.38z"
        transform="matrix(.30807 0 0 .72473 809.712 281.096)"
      />
      <path
        style="fill: #4bafca"
        d="M-61.826 308.79a2.5 2.5 0 0 0-2.5 2.5v44.022a2.5 2.5 0 0 0 2.5 2.5 2.5 2.5 0 0 0 2.5-2.5V311.29a2.5 2.5 0 0 0-2.5-2.5z"
        transform="matrix(.41143 0 0 .41143 809.806 221.14)"
      />
    </g>
    <g style="fill: #4bafca; fill-opacity: 1">
      <path
        style="fill: #4bafca"
        d="M-82.265 66.702-69.75 88.38l12.515 21.678h-50.063L-94.78 88.38z"
        transform="matrix(.30807 0 0 .72473 845.286 252.192)"
      />
      <path
        style="fill: #4bafca"
        d="M-61.826 308.79a2.5 2.5 0 0 0-2.5 2.5v44.022a2.5 2.5 0 0 0 2.5 2.5 2.5 2.5 0 0 0 2.5-2.5V311.29a2.5 2.5 0 0 0-2.5-2.5z"
        transform="matrix(.41143 0 0 .41143 845.38 192.235)"
      />
    </g>
    <g style="fill: #4bafca; fill-opacity: 1">
      <path
        style="fill: #4bafca"
        d="M-82.265 66.702-69.75 88.38l12.515 21.678h-50.063L-94.78 88.38z"
        transform="matrix(.30807 0 0 .72473 665.192 286.655)"
      />
      <path
        style="fill: #4bafca"
        d="M-61.826 308.79a2.5 2.5 0 0 0-2.5 2.5v44.022a2.5 2.5 0 0 0 2.5 2.5 2.5 2.5 0 0 0 2.5-2.5V311.29a2.5 2.5 0 0 0-2.5-2.5z"
        transform="matrix(.41143 0 0 .41143 665.286 226.698)"
      />
    </g>
    <g style="fill: #4bafca; fill-opacity: 1">
      <path
        style="fill: #4bafca"
        d="M-82.265 66.702-69.75 88.38l12.515 21.678h-50.063L-94.78 88.38z"
        transform="matrix(.30807 0 0 .72473 839.728 255.527)"
      />
      <path
        style="fill: #4bafca"
        d="M-61.826 308.79a2.5 2.5 0 0 0-2.5 2.5v44.022a2.5 2.5 0 0 0 2.5 2.5 2.5 2.5 0 0 0 2.5-2.5V311.29a2.5 2.5 0 0 0-2.5-2.5z"
        transform="matrix(.41143 0 0 .41143 839.822 195.57)"
      />
    </g>
    <g style="fill: #4bafca; fill-opacity: 1">
      <path
        style="fill: #4bafca"
        d="M-82.265 66.702-69.75 88.38l12.515 21.678h-50.063L-94.78 88.38z"
        transform="matrix(.30807 0 0 .72473 839.728 255.527)"
      />
      <path
        style="fill: #4bafca"
        d="M-61.826 308.79a2.5 2.5 0 0 0-2.5 2.5v44.022a2.5 2.5 0 0 0 2.5 2.5 2.5 2.5 0 0 0 2.5-2.5V311.29a2.5 2.5 0 0 0-2.5-2.5z"
        transform="matrix(.41143 0 0 .41143 839.822 195.57)"
      />
    </g>
    <path
      style="fill: #3096b4; fill-opacity: 1"
      d="M-82.265 66.702-69.75 88.38l12.515 21.678h-50.063L-94.78 88.38z"
      transform="matrix(.43473 0 0 1.02272 327.795 268.958)"
    />
    <path
      style="fill: #3096b4; fill-opacity: 1"
      d="M-82.265 66.702-69.75 88.38l12.515 21.678h-50.063L-94.78 88.38z"
      transform="matrix(.43473 0 0 1.02272 338.912 258.953)"
    />
    <path
      style="fill: #3096b4; fill-opacity: 1"
      d="M-82.265 66.702-69.75 88.38l12.515 21.678h-50.063L-94.78 88.38z"
      transform="matrix(.43473 0 0 1.02272 347.805 254.506)"
    />
    <path
      style="fill: #3096b4; fill-opacity: 1"
      d="M-82.265 66.702-69.75 88.38l12.515 21.678h-50.063L-94.78 88.38z"
      transform="matrix(.43473 0 0 1.02272 362.257 260.064)"
    />
    <path
      style="fill: #3096b4; fill-opacity: 1"
      d="M-82.265 66.702-69.75 88.38l12.515 21.678h-50.063L-94.78 88.38z"
      transform="matrix(.43473 0 0 1.02272 381.156 254.506)"
    />
    <path
      style="fill: #3096b4; fill-opacity: 1"
      d="M-82.265 66.702-69.75 88.38l12.515 21.678h-50.063L-94.78 88.38z"
      transform="matrix(.43473 0 0 1.02272 400.055 250.06)"
    />
    <path
      style="fill: #3096b4; fill-opacity: 1"
      d="M-82.265 66.702-69.75 88.38l12.515 21.678h-50.063L-94.78 88.38z"
      transform="matrix(.43473 0 0 1.02272 417.842 238.942)"
    />
    <path
      style="fill: #3096b4; fill-opacity: 1"
      d="M-82.265 66.702-69.75 88.38l12.515 21.678h-50.063L-94.78 88.38z"
      transform="matrix(.43473 0 0 1.02272 382.268 244.5)"
    />
    <path
      style="fill: #3096b4; fill-opacity: 1"
      d="M-82.265 66.702-69.75 88.38l12.515 21.678h-50.063L-94.78 88.38z"
      transform="matrix(.43473 0 0 1.02272 371.15 251.17)"
    />
    <path
      style="fill: #3096b4; fill-opacity: 1"
      d="M-82.265 66.702-69.75 88.38l12.515 21.678h-50.063L-94.78 88.38z"
      transform="matrix(.43473 0 0 1.02272 402.278 235.607)"
    />
    <path
      style="fill: #3096b4; fill-opacity: 1"
      d="M-82.265 66.702-69.75 88.38l12.515 21.678h-50.063L-94.78 88.38z"
      transform="matrix(.43473 0 0 1.02272 440.076 228.937)"
    />
    <path
      style="fill: #3096b4"
      d="M-82.265 66.702-69.75 88.38l12.515 21.678h-50.063L-94.78 88.38z"
      transform="matrix(.43473 0 0 1.02272 447.857 215.597)"
    />
    <path
      style="fill: #3096b4"
      d="M-82.265 66.702-69.75 88.38l12.515 21.678h-50.063L-94.78 88.38z"
      transform="matrix(.43473 0 0 1.02272 468.98 205.592)"
    />
    <path
      style="fill: #3096b4"
      d="M-82.265 66.702-69.75 88.38l12.515 21.678h-50.063L-94.78 88.38z"
      transform="matrix(.43473 0 0 1.02272 486.767 193.363)"
    />
    <path
      style="fill: #3096b4"
      d="M-82.265 66.702-69.75 88.38l12.515 21.678h-50.063L-94.78 88.38z"
      transform="matrix(.43473 0 0 1.02272 500.107 186.693)"
    />
    <path
      style="fill: #3096b4"
      d="M-82.265 66.702-69.75 88.38l12.515 21.678h-50.063L-94.78 88.38z"
      transform="matrix(.43473 0 0 1.02272 512.336 181.134)"
    />
    <path
      style="fill: #3096b4"
      d="M-82.265 66.702-69.75 88.38l12.515 21.678h-50.063L-94.78 88.38z"
      transform="matrix(.43473 0 0 1.02272 536.793 171.129)"
    />
    <path
      style="fill: #3096b4"
      d="M-82.265 66.702-69.75 88.38l12.515 21.678h-50.063L-94.78 88.38z"
      transform="matrix(.43473 0 0 1.02272 546.798 163.347)"
    />
    <path
      style="fill: #3096b4"
      d="M-82.265 66.702-69.75 88.38l12.515 21.678h-50.063L-94.78 88.38z"
      transform="matrix(.43473 0 0 1.02272 565.697 155.565)"
    />
    <path
      style="fill: #3096b4"
      d="M-82.265 66.702-69.75 88.38l12.515 21.678h-50.063L-94.78 88.38z"
      transform="matrix(.43473 0 0 1.02272 579.037 151.119)"
    />
    <path
      style="fill: #3096b4"
      d="M-82.265 66.702-69.75 88.38l12.515 21.678h-50.063L-94.78 88.38z"
      transform="matrix(.43473 0 0 1.02272 601.271 143.337)"
    />
    <path
      style="fill: #3096b4"
      d="M-82.265 66.702-69.75 88.38l12.515 21.678h-50.063L-94.78 88.38z"
      transform="matrix(.43473 0 0 1.02272 611.276 134.443)"
    />
    <path
      style="fill: #3096b4"
      d="M-82.265 66.702-69.75 88.38l12.515 21.678h-50.063L-94.78 88.38z"
      transform="matrix(.43473 0 0 1.02272 629.063 132.22)"
    />
    <path
      style="fill: #3096b4"
      d="M-82.265 66.702-69.75 88.38l12.515 21.678h-50.063L-94.78 88.38z"
      transform="matrix(.43473 0 0 1.02272 639.069 136.667)"
    />
    <path
      style="fill: #3096b4"
      d="M-82.265 66.702-69.75 88.38l12.515 21.678h-50.063L-94.78 88.38z"
      transform="matrix(.43473 0 0 1.02272 655.744 142.225)"
    />
    <path
      style="fill: #3096b4"
      d="M-82.265 66.702-69.75 88.38l12.515 21.678h-50.063L-94.78 88.38z"
      transform="matrix(.43473 0 0 1.02272 669.084 143.337)"
    />
    <path
      style="fill: #3096b4"
      d="M-82.265 66.702-69.75 88.38l12.515 21.678h-50.063L-94.78 88.38z"
      transform="matrix(.43473 0 0 1.02272 673.531 143.337)"
    />
    <path
      style="fill: #3096b4"
      d="M-82.265 66.702-69.75 88.38l12.515 21.678h-50.063L-94.78 88.38z"
      transform="matrix(.43473 0 0 1.02272 679.09 143.337)"
    />
    <path
      style="fill: #3096b4"
      d="M-82.265 66.702-69.75 88.38l12.515 21.678h-50.063L-94.78 88.38z"
      transform="matrix(.43473 0 0 1.02272 685.76 142.225)"
    />
    <path
      style="fill: #3096b4"
      d="M-82.265 66.702-69.75 88.38l12.515 21.678h-50.063L-94.78 88.38z"
      transform="matrix(.43473 0 0 1.02272 699.1 150.007)"
    />
    <path
      style="fill: #3096b4"
      d="M-82.265 66.702-69.75 88.38l12.515 21.678h-50.063L-94.78 88.38z"
      transform="matrix(.43473 0 0 1.02272 707.994 151.119)"
    />
    <path
      style="fill: #3096b4"
      d="M-82.265 66.702-69.75 88.38l12.515 21.678h-50.063L-94.78 88.38z"
      transform="matrix(.43473 0 0 1.02272 719.11 152.23)"
    />
    <path
      style="fill: #3096b4"
      d="M-82.265 66.702-69.75 88.38l12.515 21.678h-50.063L-94.78 88.38z"
      transform="matrix(.43473 0 0 1.02272 726.892 155.565)"
    />
    <path
      style="fill: #3096b4"
      d="M-82.265 66.702-69.75 88.38l12.515 21.678h-50.063L-94.78 88.38z"
      transform="matrix(.43473 0 0 1.02272 731.34 157.789)"
    />
    <path
      style="fill: #3096b4"
      d="M-82.265 66.702-69.75 88.38l12.515 21.678h-50.063L-94.78 88.38z"
      transform="matrix(.43473 0 0 1.02272 745.791 161.124)"
    />
    <path
      style="fill: #3096b4"
      d="M-82.265 66.702-69.75 88.38l12.515 21.678h-50.063L-94.78 88.38z"
      transform="matrix(.43473 0 0 1.02272 766.913 164.459)"
    />
    <path
      style="fill: #3096b4"
      d="M-82.265 66.702-69.75 88.38l12.515 21.678h-50.063L-94.78 88.38z"
      transform="matrix(.43473 0 0 1.02272 773.583 164.459)"
    />
    <path
      style="fill: #3096b4"
      d="M-82.265 66.702-69.75 88.38l12.515 21.678h-50.063L-94.78 88.38z"
      transform="matrix(.43473 0 0 1.02272 790.259 166.682)"
    />
    <path
      style="fill: #3096b4"
      d="M-82.265 66.702-69.75 88.38l12.515 21.678h-50.063L-94.78 88.38z"
      transform="matrix(.43473 0 0 1.02272 802.488 172.24)"
    />
    <path
      style="fill: #3096b4"
      d="M-82.265 66.702-69.75 88.38l12.515 21.678h-50.063L-94.78 88.38z"
      transform="matrix(.43473 0 0 1.02272 818.051 178.91)"
    />
    <path
      style="fill: #3096b4"
      d="M-82.265 66.702-69.75 88.38l12.515 21.678h-50.063L-94.78 88.38z"
      transform="matrix(.43473 0 0 1.02272 828.056 181.134)"
    />
    <path
      style="fill: #3096b4"
      d="M-82.265 66.702-69.75 88.38l12.515 21.678h-50.063L-94.78 88.38z"
      transform="matrix(.43473 0 0 1.02272 852.514 186.693)"
    />
    <path
      style="fill: #3096b4"
      d="M-82.265 66.702-69.75 88.38l12.515 21.678h-50.063L-94.78 88.38z"
      transform="matrix(.43473 0 0 1.02272 873.636 193.363)"
    />
    <path
      style="fill: #3096b4"
      d="M-82.265 66.702-69.75 88.38l12.515 21.678h-50.063L-94.78 88.38z"
      transform="matrix(.43473 0 0 1.02272 895.87 198.921)"
    />
    <path
      style="fill: #3096b4"
      d="M-82.265 66.702-69.75 88.38l12.515 21.678h-50.063L-94.78 88.38z"
      transform="matrix(.43473 0 0 1.02272 901.428 200.033)"
    />
    <path
      style="fill: #3096b4"
      d="M-82.265 66.702-69.75 88.38l12.515 21.678h-50.063L-94.78 88.38z"
      transform="matrix(.43473 0 0 1.02272 923.662 202.256)"
    />
    <path
      style="fill: #3096b4"
      d="M-82.265 66.702-69.75 88.38l12.515 21.678h-50.063L-94.78 88.38z"
      transform="matrix(.43473 0 0 1.02272 954.79 202.256)"
    />
    <path
      style="fill: #3096b4"
      d="M-82.265 66.702-69.75 88.38l12.515 21.678h-50.063L-94.78 88.38z"
      transform="matrix(.43473 0 0 1.02272 945.896 203.368)"
    />
    <path
      style="fill: #3096b4"
      d="M-82.265 66.702-69.75 88.38l12.515 21.678h-50.063L-94.78 88.38z"
      transform="matrix(.43473 0 0 1.02272 924.774 214.485)"
    />
    <path
      style="fill: #3096b4"
      d="M-82.265 66.702-69.75 88.38l12.515 21.678h-50.063L-94.78 88.38z"
      transform="matrix(.43473 0 0 1.02272 939.226 212.262)"
    />
    <path
      style="fill: #3096b4"
      d="M-82.265 66.702-69.75 88.38l12.515 21.678h-50.063L-94.78 88.38z"
      transform="matrix(.43473 0 0 1.02272 933.667 206.703)"
    />
    <path
      style="fill: #3096b4"
      d="M-82.265 66.702-69.75 88.38l12.515 21.678h-50.063L-94.78 88.38z"
      transform="matrix(.43473 0 0 1.02272 911.433 206.703)"
    />
    <path
      style="fill: #3096b4"
      d="M-82.265 66.702-69.75 88.38l12.515 21.678h-50.063L-94.78 88.38z"
      transform="matrix(.43473 0 0 1.02272 886.976 196.698)"
    />
    <path
      style="fill: #3096b4"
      d="M-82.265 66.702-69.75 88.38l12.515 21.678h-50.063L-94.78 88.38z"
      transform="matrix(.43473 0 0 1.02272 864.742 197.81)"
    />
    <path
      style="fill: #3096b4"
      d="M-82.265 66.702-69.75 88.38l12.515 21.678h-50.063L-94.78 88.38z"
      transform="matrix(.43473 0 0 1.02272 846.955 185.581)"
    />
    <path
      style="fill: #3096b4"
      d="M-82.265 66.702-69.75 88.38l12.515 21.678h-50.063L-94.78 88.38z"
      transform="matrix(.43473 0 0 1.02272 760.243 155.565)"
    />
    <path
      style="fill: #3096b4"
      d="M-82.265 66.702-69.75 88.38l12.515 21.678h-50.063L-94.78 88.38z"
      transform="matrix(.43473 0 0 1.02272 593.49 150.007)"
    />
    <path
      style="fill: #3096b4"
      d="M-82.265 66.702-69.75 88.38l12.515 21.678h-50.063L-94.78 88.38z"
      transform="matrix(.43473 0 0 1.02272 607.941 142.225)"
    />
    <path
      style="fill: #3096b4"
      d="M-82.265 66.702-69.75 88.38l12.515 21.678h-50.063L-94.78 88.38z"
      transform="matrix(.43473 0 0 1.02272 626.84 129.996)"
    />
    <path
      style="fill: #3096b4"
      d="M-82.265 66.702-69.75 88.38l12.515 21.678h-50.063L-94.78 88.38z"
      transform="matrix(.43473 0 0 1.02272 661.303 129.996)"
    />
    <path
      style="fill: #3096b4"
      d="M-82.265 66.702-69.75 88.38l12.515 21.678h-50.063L-94.78 88.38z"
      transform="matrix(.43473 0 0 1.02272 642.404 119.991)"
    />
    <path
      style="fill: #3096b4"
      d="M-82.265 66.702-69.75 88.38l12.515 21.678h-50.063L-94.78 88.38z"
      transform="matrix(.43473 0 0 1.02272 583.484 142.225)"
    />
    <path
      style="fill: #3096b4"
      d="M-82.265 66.702-69.75 88.38l12.515 21.678h-50.063L-94.78 88.38z"
      transform="matrix(.43473 0 0 1.02272 535.681 158.9)"
    />
    <path
      style="fill: #3096b4"
      d="M-82.265 66.702-69.75 88.38l12.515 21.678h-50.063L-94.78 88.38z"
      transform="matrix(.43473 0 0 1.02272 520.117 170.017)"
    />
    <path
      style="fill: #3096b4"
      d="M-82.265 66.702-69.75 88.38l12.515 21.678h-50.063L-94.78 88.38z"
      transform="matrix(.4094 -.1462 .34396 .96315 933.162 179.249)"
    />
    <path
      style="fill: #3096b4"
      d="M-82.265 66.702-69.75 88.38l12.515 21.678h-50.063L-94.78 88.38z"
      transform="matrix(.4094 -.1462 .34396 .96315 943.168 171.467)"
    />
    <path
      style="fill: #3096b4"
      d="M-82.265 66.702-69.75 88.38l12.515 21.678h-50.063L-94.78 88.38z"
      transform="matrix(.4094 -.1462 .34396 .96315 949.838 154.792)"
    />
    <path
      style="fill: #3096b4"
      d="M-82.265 66.702-69.75 88.38l12.515 21.678h-50.063L-94.78 88.38z"
      transform="matrix(.31811 -.2963 .69707 .74836 918.75 143.23)"
    />
    <path
      style="fill: #3096b4"
      d="M-82.265 66.702-69.75 88.38l12.515 21.678h-50.063L-94.78 88.38z"
      transform="matrix(.31811 -.2963 .69707 .74836 928.756 132.114)"
    />
    <path
      style="fill: #3096b4"
      d="M-82.265 66.702-69.75 88.38l12.515 21.678h-50.063L-94.78 88.38z"
      transform="matrix(.31811 -.2963 .69707 .74836 935.426 110.991)"
    />
    <path
      style="fill: #3096b4"
      d="M-82.265 66.702-69.75 88.38l12.515 21.678h-50.063L-94.78 88.38z"
      transform="matrix(.31811 -.2963 .69707 .74836 939.873 98.763)"
    />
    <path
      style="fill: #3096b4"
      d="M-82.265 66.702-69.75 88.38l12.515 21.678h-50.063L-94.78 88.38z"
      transform="matrix(.31811 -.2963 .69707 .74836 942.096 82.087)"
    />
    <path
      style="fill: #3096b4"
      d="M-82.265 66.702-69.75 88.38l12.515 21.678h-50.063L-94.78 88.38z"
      transform="matrix(.31811 -.2963 .69707 .74836 949.878 64.3)"
    />
    <path
      style="fill: #3096b4"
      d="M-82.265 66.702-69.75 88.38l12.515 21.678h-50.063L-94.78 88.38z"
      transform="matrix(.31811 -.2963 .69707 .74836 955.436 52.072)"
    />
    <path
      style="fill: #3096b4"
      d="M-82.265 66.702-69.75 88.38l12.515 21.678h-50.063L-94.78 88.38z"
      transform="matrix(.31811 -.2963 .69707 .74836 953.769 22.056)"
    />
    <path
      style="fill: #3096b4"
      d="M-82.265 66.702-69.75 88.38l12.515 21.678h-50.063L-94.78 88.38z"
      transform="matrix(.39258 -.18675 .43934 .92355 988.397 -8.75)"
    />
    <path
      style="fill: #3096b4"
      d="M-82.265 66.702-69.75 88.38l12.515 21.678h-50.063L-94.78 88.38z"
      transform="matrix(.31811 -.2963 .69707 .74836 952.657 35.952)"
    />
    <path
      style="fill: #3096b4"
      d="M-82.265 66.702-69.75 88.38l12.515 21.678h-50.063L-94.78 88.38z"
      transform="matrix(.31811 -.2963 .69707 .74836 947.654 70.97)"
    />
    <path
      style="fill: #3096b4"
      d="M-82.265 66.702-69.75 88.38l12.515 21.678h-50.063L-94.78 88.38z"
      transform="matrix(.31811 -.2963 .69707 .74836 936.537 98.763)"
    />
    <path
      style="fill: #3096b4"
      d="M-82.265 66.702-69.75 88.38l12.515 21.678h-50.063L-94.78 88.38z"
      transform="matrix(.31811 -.2963 .69707 .74836 929.867 114.326)"
    />
    <path
      style="fill: #3096b4"
      d="M-82.265 66.702-69.75 88.38l12.515 21.678h-50.063L-94.78 88.38z"
      transform="matrix(.31811 -.2963 .69707 .74836 927.644 131.002)"
    />
    <path
      style="fill: #3096b4"
      d="M-82.265 66.702-69.75 88.38l12.515 21.678h-50.063L-94.78 88.38z"
      transform="matrix(.31811 -.2963 .69707 .74836 920.974 152.124)"
    />
    <path
      style="fill: #3096b4"
      d="M-82.265 66.702-69.75 88.38l12.515 21.678h-50.063L-94.78 88.38z"
      transform="matrix(.31811 -.2963 .69707 .74836 909.857 172.135)"
    />
    <path
      style="fill: #1f6c87"
      d="M1016 571.5v-71.238s-86.625-208.998-277.836-113.393c-191.211 95.606-153.413 153.414-297.934 95.606-144.52-57.808-206.774-222.339-289.04-253.466C68.925 197.88 0 249.019 0 282.37V571.5Z"
    />

    <path
      style="fill: #1f6c87"
      d="M-82.265 66.702-69.75 88.38l12.515 21.678h-50.063L-94.78 88.38z"
      transform="matrix(.74877 0 0 1.7615 83.096 89.13)"
    />
    <path
      style="fill: #1f6c87"
      d="M-82.265 66.702-69.75 88.38l12.515 21.678h-50.063L-94.78 88.38z"
      transform="matrix(.74877 0 0 1.7615 98.818 85.986)"
    />
    <path
      style="fill: #1f6c87"
      d="M-82.265 66.702-69.75 88.38l12.515 21.678h-50.063L-94.78 88.38z"
      transform="matrix(.74877 0 0 1.7615 98.818 85.986)"
    />
    <path
      style="fill: #1f6c87"
      d="M-82.265 66.702-69.75 88.38l12.515 21.678h-50.063L-94.78 88.38z"
      transform="matrix(.74877 0 0 1.7615 109.823 90.702)"
    />
    <path
      style="fill: #1f6c87"
      d="M-82.265 66.702-69.75 88.38l12.515 21.678h-50.063L-94.78 88.38z"
      transform="matrix(.74877 0 0 1.7615 123.972 79.697)"
    />
    <path
      style="fill: #1f6c87"
      d="M-82.265 66.702-69.75 88.38l12.515 21.678h-50.063L-94.78 88.38z"
      transform="matrix(.74877 0 0 1.7615 152.271 85.986)"
    />
    <path
      style="fill: #1f6c87"
      d="M-82.265 66.702-69.75 88.38l12.515 21.678h-50.063L-94.78 88.38z"
      transform="matrix(.74877 0 0 1.7615 166.42 87.558)"
    />
    <path
      style="fill: #1f6c87"
      d="M-82.265 66.702-69.75 88.38l12.515 21.678h-50.063L-94.78 88.38z"
      transform="matrix(.74877 0 0 1.7615 174.282 89.13)"
    />
    <path
      style="fill: #1f6c87"
      d="M-82.265 66.702-69.75 88.38l12.515 21.678h-50.063L-94.78 88.38z"
      transform="matrix(.74877 0 0 1.7615 147.555 82.841)"
    />
    <path
      style="fill: #1f6c87"
      d="M-82.265 66.702-69.75 88.38l12.515 21.678h-50.063L-94.78 88.38z"
      transform="matrix(.74877 0 0 1.7615 191.576 82.841)"
    />
    <path
      style="fill: #1f6c87"
      d="M-82.265 66.702-69.75 88.38l12.515 21.678h-50.063L-94.78 88.38z"
      transform="matrix(.74877 0 0 1.7615 201.009 98.563)"
    />
    <path
      style="fill: #1f6c87"
      d="M-82.265 66.702-69.75 88.38l12.515 21.678h-50.063L-94.78 88.38z"
      transform="matrix(.74877 0 0 1.7615 213.586 101.707)"
    />
    <path
      style="fill: #1f6c87"
      d="M-82.265 66.702-69.75 88.38l12.515 21.678h-50.063L-94.78 88.38z"
      transform="matrix(.74877 0 0 1.7615 226.163 101.707)"
    />
    <path
      style="fill: #1f6c87"
      d="M-82.265 66.702-69.75 88.38l12.515 21.678h-50.063L-94.78 88.38z"
      transform="matrix(.74877 0 0 1.7615 232.452 103.28)"
    />
    <path
      style="fill: #1f6c87"
      d="M-82.265 66.702-69.75 88.38l12.515 21.678h-50.063L-94.78 88.38z"
      transform="matrix(.74877 0 0 1.7615 237.169 109.568)"
    />
    <path
      style="fill: #1f6c87"
      d="M-82.265 66.702-69.75 88.38l12.515 21.678h-50.063L-94.78 88.38z"
      transform="matrix(.74877 0 0 1.7615 237.169 114.285)"
    />
    <path
      style="fill: #1f6c87"
      d="M-82.265 66.702-69.75 88.38l12.515 21.678h-50.063L-94.78 88.38z"
      transform="matrix(.74877 0 0 1.7615 243.457 120.573)"
    />
    <path
      style="fill: #1f6c87"
      d="M-82.265 66.702-69.75 88.38l12.515 21.678h-50.063L-94.78 88.38z"
      transform="matrix(.74877 0 0 1.7615 245.03 122.146)"
    />
    <path
      style="fill: #1f6c87"
      d="M-82.265 66.702-69.75 88.38l12.515 21.678h-50.063L-94.78 88.38z"
      transform="matrix(.74877 0 0 1.7615 256.035 122.146)"
    />
    <path
      style="fill: #1f6c87"
      d="M-82.265 66.702-69.75 88.38l12.515 21.678h-50.063L-94.78 88.38z"
      transform="matrix(.74877 0 0 1.7615 260.751 125.29)"
    />
    <path
      style="fill: #1f6c87"
      d="M-82.265 66.702-69.75 88.38l12.515 21.678h-50.063L-94.78 88.38z"
      transform="matrix(.74877 0 0 1.7615 265.468 136.295)"
    />
    <path
      style="fill: #1f6c87"
      d="M-82.265 66.702-69.75 88.38l12.515 21.678h-50.063L-94.78 88.38z"
      transform="matrix(.74877 0 0 1.7615 274.9 148.873)"
    />
    <path
      style="fill: #1f6c87"
      d="M-82.265 66.702-69.75 88.38l12.515 21.678h-50.063L-94.78 88.38z"
      transform="matrix(.74877 0 0 1.7615 285.906 159.878)"
    />
    <path
      style="fill: #1f6c87"
      d="M-82.265 66.702-69.75 88.38l12.515 21.678h-50.063L-94.78 88.38z"
      transform="matrix(.74877 0 0 1.7615 290.622 163.022)"
    />
    <path
      style="fill: #1f6c87"
      d="M-82.265 66.702-69.75 88.38l12.515 21.678h-50.063L-94.78 88.38z"
      transform="matrix(.74877 0 0 1.7615 306.344 174.027)"
    />
    <path
      style="fill: #1f6c87"
      d="M-82.265 66.702-69.75 88.38l12.515 21.678h-50.063L-94.78 88.38z"
      transform="matrix(.74877 0 0 1.7615 320.494 185.032)"
    />
    <path
      style="fill: #1f6c87"
      d="M-82.265 66.702-69.75 88.38l12.515 21.678h-50.063L-94.78 88.38z"
      transform="matrix(.74877 0 0 1.7615 326.782 196.038)"
    />
    <path
      style="fill: #1f6c87"
      d="M-82.265 66.702-69.75 88.38l12.515 21.678h-50.063L-94.78 88.38z"
      transform="matrix(.74877 0 0 1.7615 333.071 203.899)"
    />
    <path
      style="fill: #1f6c87"
      d="M-82.265 66.702-69.75 88.38l12.515 21.678h-50.063L-94.78 88.38z"
      transform="matrix(.74877 0 0 1.7615 337.788 210.187)"
    />
    <path
      style="fill: #1f6c87"
      d="M-82.265 66.702-69.75 88.38l12.515 21.678h-50.063L-94.78 88.38z"
      transform="matrix(.74877 0 0 1.7615 345.648 218.048)"
    />
    <path
      style="fill: #1f6c87"
      d="M-82.265 66.702-69.75 88.38l12.515 21.678h-50.063L-94.78 88.38z"
      transform="matrix(.74877 0 0 1.7615 355.081 225.909)"
    />
    <path
      style="fill: #1f6c87"
      d="M-82.265 66.702-69.75 88.38l12.515 21.678h-50.063L-94.78 88.38z"
      transform="matrix(.74877 0 0 1.7615 366.087 229.053)"
    />
    <path
      style="fill: #1f6c87"
      d="M-82.265 66.702-69.75 88.38l12.515 21.678h-50.063L-94.78 88.38z"
      transform="matrix(.74877 0 0 1.7615 377.092 243.203)"
    />
    <path
      style="fill: #1f6c87"
      d="M-82.265 66.702-69.75 88.38l12.515 21.678h-50.063L-94.78 88.38z"
      transform="matrix(.74877 0 0 1.7615 386.525 254.208)"
    />
    <path
      style="fill: #1f6c87"
      d="M-82.265 66.702-69.75 88.38l12.515 21.678h-50.063L-94.78 88.38z"
      transform="matrix(.74877 0 0 1.7615 403.819 262.069)"
    />
    <path
      style="fill: #1f6c87"
      d="M-82.265 66.702-69.75 88.38l12.515 21.678h-50.063L-94.78 88.38z"
      transform="matrix(.74877 0 0 1.7615 413.252 262.069)"
    />
    <path
      style="fill: #1f6c87"
      d="M-82.265 66.702-69.75 88.38l12.515 21.678h-50.063L-94.78 88.38z"
      transform="matrix(.74877 0 0 1.7615 427.401 274.646)"
    />
    <path
      style="fill: #1f6c87"
      d="M-82.265 66.702-69.75 88.38l12.515 21.678h-50.063L-94.78 88.38z"
      transform="matrix(.74877 0 0 1.7615 439.979 291.94)"
    />
    <path
      style="fill: #1f6c87"
      d="M-82.265 66.702-69.75 88.38l12.515 21.678h-50.063L-94.78 88.38z"
      transform="matrix(.74877 0 0 1.7615 458.845 302.945)"
    />
    <path
      style="fill: #1f6c87"
      d="M-82.265 66.702-69.75 88.38l12.515 21.678h-50.063L-94.78 88.38z"
      transform="matrix(.74877 0 0 1.7615 476.139 315.523)"
    />
    <path
      style="fill: #1f6c87"
      d="M-82.265 66.702-69.75 88.38l12.515 21.678h-50.063L-94.78 88.38z"
      transform="matrix(.74877 0 0 1.7615 490.288 342.25)"
    />
    <path
      style="fill: #1f6c87"
      d="M-82.265 66.702-69.75 88.38l12.515 21.678h-50.063L-94.78 88.38z"
      transform="matrix(.74877 0 0 1.7615 504.438 351.683)"
    />
    <path
      style="fill: #1f6c87"
      d="M-82.265 66.702-69.75 88.38l12.515 21.678h-50.063L-94.78 88.38z"
      transform="matrix(.74877 0 0 1.7615 551.603 346.966)"
    />
    <path
      style="fill: #1f6c87"
      d="M-82.265 66.702-69.75 88.38l12.515 21.678h-50.063L-94.78 88.38z"
      transform="matrix(.74877 0 0 1.7615 579.902 354.827)"
    />
    <path
      style="fill: #1f6c87"
      d="M-82.265 66.702-69.75 88.38l12.515 21.678h-50.063L-94.78 88.38z"
      transform="matrix(.74877 0 0 1.7615 627.067 350.11)"
    />
    <path
      style="fill: #1f6c87"
      d="M-82.265 66.702-69.75 88.38l12.515 21.678h-50.063L-94.78 88.38z"
      transform="matrix(.74877 0 0 1.7615 630.211 348.538)"
    />
    <path
      style="fill: #1f6c87"
      d="M-82.265 66.702-69.75 88.38l12.515 21.678h-50.063L-94.78 88.38z"
      transform="matrix(.74877 0 0 1.7615 647.505 337.533)"
    />
    <path
      style="fill: #1f6c87"
      d="M-82.265 66.702-69.75 88.38l12.515 21.678h-50.063L-94.78 88.38z"
      transform="matrix(.74877 0 0 1.7615 685.237 315.523)"
    />
    <path
      style="fill: #1f6c87"
      d="M-82.265 66.702-69.75 88.38l12.515 21.678h-50.063L-94.78 88.38z"
      transform="matrix(.74877 0 0 1.7615 697.815 296.657)"
    />
    <path
      style="fill: #1f6c87"
      d="M-82.265 66.702-69.75 88.38l12.515 21.678h-50.063L-94.78 88.38z"
      transform="matrix(.74877 0 0 1.7615 711.964 277.79)"
    />
    <path
      style="fill: #1f6c87"
      d="M-82.265 66.702-69.75 88.38l12.515 21.678h-50.063L-94.78 88.38z"
      transform="matrix(.74877 0 0 1.7615 746.552 269.93)"
    />
    <path
      style="fill: #1f6c87"
      d="M-82.265 66.702-69.75 88.38l12.515 21.678h-50.063L-94.78 88.38z"
      transform="matrix(.74877 0 0 1.7615 771.707 254.208)"
    />
    <path
      style="fill: #1f6c87"
      d="M-82.265 66.702-69.75 88.38l12.515 21.678h-50.063L-94.78 88.38z"
      transform="matrix(.74877 0 0 1.7615 798.434 230.625)"
    />
    <path
      style="fill: #1f6c87"
      d="M-82.265 66.702-69.75 88.38l12.515 21.678h-50.063L-94.78 88.38z"
      transform="matrix(.74877 0 0 1.7615 829.877 230.625)"
    />
    <path
      style="fill: #1f6c87"
      d="M-82.265 66.702-69.75 88.38l12.515 21.678h-50.063L-94.78 88.38z"
      transform="matrix(.74877 0 0 1.7615 862.893 227.481)"
    />
    <path
      style="fill: #1f6c87"
      d="M-82.265 66.702-69.75 88.38l12.515 21.678h-50.063L-94.78 88.38z"
      transform="matrix(.74877 0 0 1.7615 899.053 224.337)"
    />
    <path
      style="fill: #1f6c87"
      d="M-82.265 66.702-69.75 88.38l12.515 21.678h-50.063L-94.78 88.38z"
      transform="matrix(.74877 0 0 1.7615 928.924 235.342)"
    />
    <path
      style="fill: #1f6c87"
      d="M-82.265 66.702-69.75 88.38l12.515 21.678h-50.063L-94.78 88.38z"
      transform="matrix(.74877 0 0 1.7615 963.512 238.486)"
    />
    <path
      style="fill: #1f6c87"
      d="M-82.265 66.702-69.75 88.38l12.515 21.678h-50.063L-94.78 88.38z"
      transform="matrix(.74877 0 0 1.7615 994.955 249.491)"
    />
    <path
      style="fill: #1f6c87"
      d="M-82.265 66.702-69.75 88.38l12.515 21.678h-50.063L-94.78 88.38z"
      transform="matrix(.74877 0 0 1.7615 1018.538 271.502)"
    />
    <path
      style="fill: #1f6c87"
      d="M-82.265 66.702-69.75 88.38l12.515 21.678h-50.063L-94.78 88.38z"
      transform="matrix(.74877 0 0 1.7615 1034.26 293.512)"
    />
    <path
      style="fill: #1f6c87"
      d="M-82.265 66.702-69.75 88.38l12.515 21.678h-50.063L-94.78 88.38z"
      transform="matrix(.74877 0 0 1.7615 1056.27 320.24)"
    />
    <path
      style="fill: #1f6c87"
      d="M-82.265 66.702-69.75 88.38l12.515 21.678h-50.063L-94.78 88.38z"
      transform="matrix(.74877 0 0 1.7615 605.057 332.817)"
    />
    <path
      xmlns="http://www.w3.org/2000/svg"
      style="fill: #1f6c87"
      d="M-82.265 66.702-69.75 88.38l12.515 21.678h-50.063L-94.78 88.38z"
      transform="matrix(.74877 0 0 1.7615 528.02 348.538)"
    />

    <linearGradient
      xmlns="http://www.w3.org/2000/svg"
      id="w"
      x1="663.58"
      x2="663.58"
      y1="29.904"
      y2="105.97"
      gradientUnits="userSpaceOnUse"
    >
      <stop stop-color="#fff" offset="0" />
      <stop stop-color="#DBEFF9" offset=".995" />
    </linearGradient>
    <path
      xmlns="http://www.w3.org/2000/svg"
      d="M650 101c-10.9-1.9-17.8-10.2-15.8-18.4 2.1-8.5 13-14.2 24.3-12.6-.6-5.4 4.2-10.4 11.1-11.5 6.8-1.1 13.8 1.9 16.1 7-.4-1.5-2.1-9.1 4.1-16.5 6.1-7.2 15.6-9.1 17.6-9.5 1.2-5.2 6.7-9 13-9.5 7.3-.5 14.4 3.5 15.9 9.5 10.6-2.9 22.4-.5 29.1 6 5.7 5.5 6.9 13.1 3.3 19.7 4.3-5.5 12.7-8.4 20.9-7.2 8.4 1.2 15 6.4 16.3 13 .4-.2 9.1-3.8 17.6 0 6 2.7 9.4 8 8.5 13.5 3.2-3.4 8.6-4.5 12.4-3 3.9 1.5 5.5 6.1 4.3 9.4-4.7 12.6-54.5 14.1-54.5 14.1s-31.6 1.2-64.6 1c-31.2-.2-46.8-1.4-53.5-2-10.8-1-19.8-2.1-26.1-3z"
      style="opacity: 0.82; fill: url(#w)"
    />
    <path
      d="M100 101c-10.9-1.9-17.8-10.2-15.8-18.4 2.1-8.5 13-14.2 24.3-12.6-.6-5.4 4.2-10.4 11.1-11.5 6.8-1.1 13.8 1.9 16.1 7-.4-1.5-2.1-9.1 4.1-16.5 6.1-7.2 15.6-9.1 17.6-9.5 1.2-5.2 6.7-9 13-9.5 7.3-.5 14.4 3.5 15.9 9.5 10.6-2.9 22.4-.5 29.1 6 5.7 5.5 6.9 13.1 3.3 19.7 4.3-5.5 12.7-8.4 20.9-7.2 8.4 1.2 15 6.4 16.3 13 .4-.2 9.1-3.8 17.6 0 6 2.7 9.4 8 8.5 13.5 3.2-3.4 8.6-4.5 12.4-3 3.9 1.5 5.5 6.1 4.3 9.4-4.7 12.6-54.5 14.1-54.5 14.1s-31.6 1.2-64.6 1c-31.2-.2-46.8-1.4-53.5-2-10.8-1-19.8-2.1-26.1-3z"
      style="opacity: 0.82; fill: url(#w)"
    />
    <g style="fill: #1f7791; fill-opacity: 1">
      <path
        style="fill: #1f7791"
        d="M-82.265 66.702-69.75 88.38l12.515 21.678h-50.063L-94.78 88.38z"
        transform="matrix(.51291 0 0 1.20664 92.207 203.513)"
      />
      <path
        style="fill: #1f7791"
        d="M-61.826 308.79a2.5 2.5 0 0 0-2.5 2.5v44.022a2.5 2.5 0 0 0 2.5 2.5 2.5 2.5 0 0 0 2.5-2.5V311.29a2.5 2.5 0 0 0-2.5-2.5z"
        transform="matrix(.685 0 0 .685 92.364 103.688)"
      />
    </g>
    <g style="fill: #1f7791; fill-opacity: 1">
      <path
        style="fill: #1f7791"
        d="M-82.265 66.702-69.75 88.38l12.515 21.678h-50.063L-94.78 88.38z"
        transform="matrix(.51291 0 0 1.20664 58.683 284.434)"
      />
      <path
        style="fill: #1f7791"
        d="M-61.826 308.79a2.5 2.5 0 0 0-2.5 2.5v44.022a2.5 2.5 0 0 0 2.5 2.5 2.5 2.5 0 0 0 2.5-2.5V311.29a2.5 2.5 0 0 0-2.5-2.5z"
        transform="matrix(.685 0 0 .685 58.84 184.609)"
      />
    </g>
    <g style="fill: #1f7791; fill-opacity: 1">
      <path
        style="fill: #1f7791"
        d="M-82.265 66.702-69.75 88.38l12.515 21.678h-50.063L-94.78 88.38z"
        transform="matrix(.51291 0 0 1.20664 114.087 196.99)"
      />
      <path
        style="fill: #1f7791"
        d="M-61.826 308.79a2.5 2.5 0 0 0-2.5 2.5v44.022a2.5 2.5 0 0 0 2.5 2.5 2.5 2.5 0 0 0 2.5-2.5V311.29a2.5 2.5 0 0 0-2.5-2.5z"
        transform="matrix(.685 0 0 .685 114.244 97.165)"
      />
    </g>
    <g style="fill: #1f7791; fill-opacity: 1">
      <path
        style="fill: #1f7791"
        d="M-82.265 66.702-69.75 88.38l12.515 21.678h-50.063L-94.78 88.38z"
        transform="matrix(.51291 0 0 1.20664 128.122 212.43)"
      />
      <path
        style="fill: #1f7791"
        d="M-61.826 308.79a2.5 2.5 0 0 0-2.5 2.5v44.022a2.5 2.5 0 0 0 2.5 2.5 2.5 2.5 0 0 0 2.5-2.5V311.29a2.5 2.5 0 0 0-2.5-2.5z"
        transform="matrix(.685 0 0 .685 128.28 112.605)"
      />
    </g>
    <g style="fill: #1f7791; fill-opacity: 1">
      <path
        style="fill: #1f7791"
        d="M-82.265 66.702-69.75 88.38l12.515 21.678h-50.063L-94.78 88.38z"
        transform="matrix(.42876 0 0 1.00867 131.683 334.14)"
      />
      <path
        style="fill: #1f7791"
        d="M-61.826 308.79a2.5 2.5 0 0 0-2.5 2.5v44.022a2.5 2.5 0 0 0 2.5 2.5 2.5 2.5 0 0 0 2.5-2.5V311.29a2.5 2.5 0 0 0-2.5-2.5z"
        transform="matrix(.57262 0 0 .57262 131.814 250.692)"
      />
    </g>
    <g style="fill: #1f7791; fill-opacity: 1">
      <path
        style="fill: #1f7791"
        d="M-82.265 66.702-69.75 88.38l12.515 21.678h-50.063L-94.78 88.38z"
        transform="matrix(.42876 0 0 1.00867 146.935 336.486)"
      />
      <path
        style="fill: #1f7791"
        d="M-61.826 308.79a2.5 2.5 0 0 0-2.5 2.5v44.022a2.5 2.5 0 0 0 2.5 2.5 2.5 2.5 0 0 0 2.5-2.5V311.29a2.5 2.5 0 0 0-2.5-2.5z"
        transform="matrix(.57262 0 0 .57262 147.067 253.039)"
      />
    </g>
    <g style="fill: #1f7791; fill-opacity: 1">
      <path
        style="fill: #1f7791"
        d="M-82.265 66.702-69.75 88.38l12.515 21.678h-50.063L-94.78 88.38z"
        transform="matrix(.42876 0 0 1.00867 156.322 362.298)"
      />
      <path
        style="fill: #1f7791"
        d="M-61.826 308.79a2.5 2.5 0 0 0-2.5 2.5v44.022a2.5 2.5 0 0 0 2.5 2.5 2.5 2.5 0 0 0 2.5-2.5V311.29a2.5 2.5 0 0 0-2.5-2.5z"
        transform="matrix(.57262 0 0 .57262 156.453 278.85)"
      />
    </g>
    <g style="fill: #1f7791; fill-opacity: 1">
      <path
        style="fill: #1f7791"
        d="M-82.265 66.702-69.75 88.38l12.515 21.678h-50.063L-94.78 88.38z"
        transform="matrix(.42876 0 0 1.00867 137.55 362.298)"
      />
      <path
        style="fill: #1f7791"
        d="M-61.826 308.79a2.5 2.5 0 0 0-2.5 2.5v44.022a2.5 2.5 0 0 0 2.5 2.5 2.5 2.5 0 0 0 2.5-2.5V311.29a2.5 2.5 0 0 0-2.5-2.5z"
        transform="matrix(.57262 0 0 .57262 137.68 278.85)"
      />
    </g>
    <g style="fill: #1f7791; fill-opacity: 1">
      <path
        style="fill: #1f7791"
        d="M-82.265 66.702-69.75 88.38l12.515 21.678h-50.063L-94.78 88.38z"
        transform="matrix(.42876 0 0 1.00867 122.297 349.392)"
      />
      <path
        style="fill: #1f7791"
        d="M-61.826 308.79a2.5 2.5 0 0 0-2.5 2.5v44.022a2.5 2.5 0 0 0 2.5 2.5 2.5 2.5 0 0 0 2.5-2.5V311.29a2.5 2.5 0 0 0-2.5-2.5z"
        transform="matrix(.57262 0 0 .57262 122.428 265.945)"
      />
    </g>
    <g style="fill: #1f7791; fill-opacity: 1">
      <path
        style="fill: #1f7791"
        d="M-82.265 66.702-69.75 88.38l12.515 21.678h-50.063L-94.78 88.38z"
        transform="matrix(.57453 0 0 1.3516 243.273 379.023)"
      />
      <path
        style="fill: #1f7791"
        d="M-61.826 308.79a2.5 2.5 0 0 0-2.5 2.5v44.022a2.5 2.5 0 0 0 2.5 2.5 2.5 2.5 0 0 0 2.5-2.5V311.29a2.5 2.5 0 0 0-2.5-2.5z"
        transform="matrix(.7673 0 0 .7673 243.45 267.205)"
      />
    </g>
    <g style="fill: #1f7791; fill-opacity: 1">
      <path
        style="fill: #1f7791"
        d="M-82.265 66.702-69.75 88.38l12.515 21.678h-50.063L-94.78 88.38z"
        transform="matrix(.57453 0 0 1.3516 259.319 360.99)"
      />
      <path
        style="fill: #1f7791"
        d="M-61.826 308.79a2.5 2.5 0 0 0-2.5 2.5v44.022a2.5 2.5 0 0 0 2.5 2.5 2.5 2.5 0 0 0 2.5-2.5V311.29a2.5 2.5 0 0 0-2.5-2.5z"
        transform="matrix(.7673 0 0 .7673 259.495 249.172)"
      />
    </g>
    <g style="fill: #1f7791; fill-opacity: 1">
      <path
        style="fill: #1f7791"
        d="M-82.265 66.702-69.75 88.38l12.515 21.678h-50.063L-94.78 88.38z"
        transform="matrix(.57453 0 0 1.3516 364.515 283.537)"
      />
      <path
        style="fill: #1f7791"
        d="M-61.826 308.79a2.5 2.5 0 0 0-2.5 2.5v44.022a2.5 2.5 0 0 0 2.5 2.5 2.5 2.5 0 0 0 2.5-2.5V311.29a2.5 2.5 0 0 0-2.5-2.5z"
        transform="matrix(.7673 0 0 .7673 364.691 171.72)"
      />
    </g>
    <g style="fill: #1f7791; fill-opacity: 1">
      <path
        style="fill: #1f7791"
        d="M-82.265 66.702-69.75 88.38l12.515 21.678h-50.063L-94.78 88.38z"
        transform="matrix(.57453 0 0 1.3516 362.758 386.884)"
      />
      <path
        style="fill: #1f7791"
        d="M-61.826 308.79a2.5 2.5 0 0 0-2.5 2.5v44.022a2.5 2.5 0 0 0 2.5 2.5 2.5 2.5 0 0 0 2.5-2.5V311.29a2.5 2.5 0 0 0-2.5-2.5z"
        transform="matrix(.7673 0 0 .7673 362.934 275.066)"
      />
    </g>
    <g style="fill: #1f7791; fill-opacity: 1">
      <path
        style="fill: #1f7791"
        d="M-82.265 66.702-69.75 88.38l12.515 21.678h-50.063L-94.78 88.38z"
        transform="matrix(.57453 0 0 1.3516 771.292 322.194)"
      />
      <path
        style="fill: #1f7791"
        d="M-61.826 308.79a2.5 2.5 0 0 0-2.5 2.5v44.022a2.5 2.5 0 0 0 2.5 2.5 2.5 2.5 0 0 0 2.5-2.5V311.29a2.5 2.5 0 0 0-2.5-2.5z"
        transform="matrix(.7673 0 0 .7673 771.468 210.376)"
      />
    </g>
    <g style="fill: #4bafca; fill-opacity: 1">
      <path
        style="fill: #4bafca"
        d="M-82.265 66.702-69.75 88.38l12.515 21.678h-50.063L-94.78 88.38z"
        transform="matrix(.30807 0 0 .72473 408.39 291.101)"
      />
      <path
        style="fill: #4bafca"
        d="M-61.826 308.79a2.5 2.5 0 0 0-2.5 2.5v44.022a2.5 2.5 0 0 0 2.5 2.5 2.5 2.5 0 0 0 2.5-2.5V311.29a2.5 2.5 0 0 0-2.5-2.5z"
        transform="matrix(.41143 0 0 .41143 408.485 231.145)"
      />
    </g>
    <g style="fill: #4bafca; fill-opacity: 1">
      <path
        style="fill: #4bafca"
        d="M-82.265 66.702-69.75 88.38l12.515 21.678h-50.063L-94.78 88.38z"
        transform="matrix(.30807 0 0 .72473 416.173 296.66)"
      />
      <path
        style="fill: #4bafca"
        d="M-61.826 308.79a2.5 2.5 0 0 0-2.5 2.5v44.022a2.5 2.5 0 0 0 2.5 2.5 2.5 2.5 0 0 0 2.5-2.5V311.29a2.5 2.5 0 0 0-2.5-2.5z"
        transform="matrix(.41143 0 0 .41143 416.267 236.703)"
      />
    </g>
    <g style="fill: #4bafca; fill-opacity: 1">
      <path
        style="fill: #4bafca"
        d="M-82.265 66.702-69.75 88.38l12.515 21.678h-50.063L-94.78 88.38z"
        transform="matrix(.30807 0 0 .72473 419.508 311.112)"
      />
      <path
        style="fill: #4bafca"
        d="M-61.826 308.79a2.5 2.5 0 0 0-2.5 2.5v44.022a2.5 2.5 0 0 0 2.5 2.5 2.5 2.5 0 0 0 2.5-2.5V311.29a2.5 2.5 0 0 0-2.5-2.5z"
        transform="matrix(.41143 0 0 .41143 419.602 251.155)"
      />
    </g>
    <g style="fill: #4bafca; fill-opacity: 1">
      <path
        style="fill: #4bafca"
        d="M-82.265 66.702-69.75 88.38l12.515 21.678h-50.063L-94.78 88.38z"
        transform="matrix(.30807 0 0 .72473 432.848 302.218)"
      />
      <path
        style="fill: #4bafca"
        d="M-61.826 308.79a2.5 2.5 0 0 0-2.5 2.5v44.022a2.5 2.5 0 0 0 2.5 2.5 2.5 2.5 0 0 0 2.5-2.5V311.29a2.5 2.5 0 0 0-2.5-2.5z"
        transform="matrix(.41143 0 0 .41143 432.942 242.262)"
      />
    </g>
    <g style="fill: #4bafca; fill-opacity: 1">
      <path
        style="fill: #4bafca"
        d="M-82.265 66.702-69.75 88.38l12.515 21.678h-50.063L-94.78 88.38z"
        transform="matrix(.30807 0 0 .72473 478.428 275.538)"
      />
      <path
        style="fill: #4bafca"
        d="M-61.826 308.79a2.5 2.5 0 0 0-2.5 2.5v44.022a2.5 2.5 0 0 0 2.5 2.5 2.5 2.5 0 0 0 2.5-2.5V311.29a2.5 2.5 0 0 0-2.5-2.5z"
        transform="matrix(.41143 0 0 .41143 478.522 215.581)"
      />
    </g>
    <g style="fill: #4bafca; fill-opacity: 1">
      <path
        style="fill: #4bafca"
        d="M-82.265 66.702-69.75 88.38l12.515 21.678h-50.063L-94.78 88.38z"
        transform="matrix(.30807 0 0 .72473 496.215 298.883)"
      />
      <path
        style="fill: #4bafca"
        d="M-61.826 308.79a2.5 2.5 0 0 0-2.5 2.5v44.022a2.5 2.5 0 0 0 2.5 2.5 2.5 2.5 0 0 0 2.5-2.5V311.29a2.5 2.5 0 0 0-2.5-2.5z"
        transform="matrix(.41143 0 0 .41143 496.309 238.927)"
      />
    </g>
    <g style="fill: #4bafca; fill-opacity: 1">
      <path
        style="fill: #4bafca"
        d="M-82.265 66.702-69.75 88.38l12.515 21.678h-50.063L-94.78 88.38z"
        transform="matrix(.30807 0 0 .72473 541.794 273.314)"
      />
      <path
        style="fill: #4bafca"
        d="M-61.826 308.79a2.5 2.5 0 0 0-2.5 2.5v44.022a2.5 2.5 0 0 0 2.5 2.5 2.5 2.5 0 0 0 2.5-2.5V311.29a2.5 2.5 0 0 0-2.5-2.5z"
        transform="matrix(.41143 0 0 .41143 541.888 213.358)"
      />
    </g>
    <g style="fill: #4bafca; fill-opacity: 1">
      <path
        style="fill: #4bafca"
        d="M-82.265 66.702-69.75 88.38l12.515 21.678h-50.063L-94.78 88.38z"
        transform="matrix(.30807 0 0 .72473 615.166 214.395)"
      />
      <path
        style="fill: #4bafca"
        d="M-61.826 308.79a2.5 2.5 0 0 0-2.5 2.5v44.022a2.5 2.5 0 0 0 2.5 2.5 2.5 2.5 0 0 0 2.5-2.5V311.29a2.5 2.5 0 0 0-2.5-2.5z"
        transform="matrix(.41143 0 0 .41143 615.26 154.438)"
      />
    </g>
    <g style="fill: #4bafca; fill-opacity: 1">
      <path
        style="fill: #4bafca"
        d="M-82.265 66.702-69.75 88.38l12.515 21.678h-50.063L-94.78 88.38z"
        transform="matrix(.30807 0 0 .72473 551.8 202.166)"
      />
      <path
        style="fill: #4bafca"
        d="M-61.826 308.79a2.5 2.5 0 0 0-2.5 2.5v44.022a2.5 2.5 0 0 0 2.5 2.5 2.5 2.5 0 0 0 2.5-2.5V311.29a2.5 2.5 0 0 0-2.5-2.5z"
        transform="matrix(.41143 0 0 .41143 551.894 142.21)"
      />
    </g>
    <g style="fill: #4bafca; fill-opacity: 1">
      <path
        style="fill: #4bafca"
        d="M-82.265 66.702-69.75 88.38l12.515 21.678h-50.063L-94.78 88.38z"
        transform="matrix(.30807 0 0 .72473 667.415 193.272)"
      />
      <path
        style="fill: #4bafca"
        d="M-61.826 308.79a2.5 2.5 0 0 0-2.5 2.5v44.022a2.5 2.5 0 0 0 2.5 2.5 2.5 2.5 0 0 0 2.5-2.5V311.29a2.5 2.5 0 0 0-2.5-2.5z"
        transform="matrix(.41143 0 0 .41143 667.51 133.316)"
      />
    </g>
    <g style="fill: #4bafca; fill-opacity: 1">
      <path
        style="fill: #4bafca"
        d="M-82.265 66.702-69.75 88.38l12.515 21.678h-50.063L-94.78 88.38z"
        transform="matrix(.30807 0 0 .72473 618.5 265.532)"
      />
      <path
        style="fill: #4bafca"
        d="M-61.826 308.79a2.5 2.5 0 0 0-2.5 2.5v44.022a2.5 2.5 0 0 0 2.5 2.5 2.5 2.5 0 0 0 2.5-2.5V311.29a2.5 2.5 0 0 0-2.5-2.5z"
        transform="matrix(.41143 0 0 .41143 618.595 205.576)"
      />
    </g>
    <g style="fill: #4bafca; fill-opacity: 1">
      <path
        style="fill: #4bafca"
        d="M-82.265 66.702-69.75 88.38l12.515 21.678h-50.063L-94.78 88.38z"
        transform="matrix(.30807 0 0 .72473 506.22 228.847)"
      />
      <path
        style="fill: #4bafca"
        d="M-61.826 308.79a2.5 2.5 0 0 0-2.5 2.5v44.022a2.5 2.5 0 0 0 2.5 2.5 2.5 2.5 0 0 0 2.5-2.5V311.29a2.5 2.5 0 0 0-2.5-2.5z"
        transform="matrix(.41143 0 0 .41143 506.314 168.89)"
      />
    </g>
    <g style="fill: #4bafca; fill-opacity: 1">
      <path
        style="fill: #4bafca"
        d="M-82.265 66.702-69.75 88.38l12.515 21.678h-50.063L-94.78 88.38z"
        transform="matrix(.30807 0 0 .72473 361.7 281.096)"
      />
      <path
        style="fill: #4bafca"
        d="M-61.826 308.79a2.5 2.5 0 0 0-2.5 2.5v44.022a2.5 2.5 0 0 0 2.5 2.5 2.5 2.5 0 0 0 2.5-2.5V311.29a2.5 2.5 0 0 0-2.5-2.5z"
        transform="matrix(.41143 0 0 .41143 361.794 221.14)"
      />
    </g>
    <g style="fill: #4bafca; fill-opacity: 1">
      <path
        style="fill: #4bafca"
        d="M-82.265 66.702-69.75 88.38l12.515 21.678h-50.063L-94.78 88.38z"
        transform="matrix(.30807 0 0 .72473 393.939 257.75)"
      />
      <path
        style="fill: #4bafca"
        d="M-61.826 308.79a2.5 2.5 0 0 0-2.5 2.5v44.022a2.5 2.5 0 0 0 2.5 2.5 2.5 2.5 0 0 0 2.5-2.5V311.29a2.5 2.5 0 0 0-2.5-2.5z"
        transform="matrix(.41143 0 0 .41143 394.033 197.794)"
      />
    </g>
    <g style="fill: #4bafca; fill-opacity: 1">
      <path
        style="fill: #4bafca"
        d="M-82.265 66.702-69.75 88.38l12.515 21.678h-50.063L-94.78 88.38z"
        transform="matrix(.30807 0 0 .72473 436.183 239.964)"
      />
      <path
        style="fill: #4bafca"
        d="M-61.826 308.79a2.5 2.5 0 0 0-2.5 2.5v44.022a2.5 2.5 0 0 0 2.5 2.5 2.5 2.5 0 0 0 2.5-2.5V311.29a2.5 2.5 0 0 0-2.5-2.5z"
        transform="matrix(.41143 0 0 .41143 436.278 180.007)"
      />
    </g>
    <g style="fill: #4bafca; fill-opacity: 1">
      <path
        style="fill: #4bafca"
        d="M-82.265 66.702-69.75 88.38l12.515 21.678h-50.063L-94.78 88.38z"
        transform="matrix(.30807 0 0 .72473 621.836 153.251)"
      />
      <path
        style="fill: #4bafca"
        d="M-61.826 308.79a2.5 2.5 0 0 0-2.5 2.5v44.022a2.5 2.5 0 0 0 2.5 2.5 2.5 2.5 0 0 0 2.5-2.5V311.29a2.5 2.5 0 0 0-2.5-2.5z"
        transform="matrix(.41143 0 0 .41143 621.93 93.295)"
      />
    </g>
    <g style="fill: #4bafca; fill-opacity: 1">
      <path
        style="fill: #4bafca"
        d="M-82.265 66.702-69.75 88.38l12.515 21.678h-50.063L-94.78 88.38z"
        transform="matrix(.30807 0 0 .72473 590.709 159.922)"
      />
      <path
        style="fill: #4bafca"
        d="M-61.826 308.79a2.5 2.5 0 0 0-2.5 2.5v44.022a2.5 2.5 0 0 0 2.5 2.5 2.5 2.5 0 0 0 2.5-2.5V311.29a2.5 2.5 0 0 0-2.5-2.5z"
        transform="matrix(.41143 0 0 .41143 590.803 99.965)"
      />
    </g>
    <g style="fill: #4bafca; fill-opacity: 1">
      <path
        style="fill: #4bafca"
        d="M-82.265 66.702-69.75 88.38l12.515 21.678h-50.063L-94.78 88.38z"
        transform="matrix(.30807 0 0 .72473 711.883 171.039)"
      />
      <path
        style="fill: #4bafca"
        d="M-61.826 308.79a2.5 2.5 0 0 0-2.5 2.5v44.022a2.5 2.5 0 0 0 2.5 2.5 2.5 2.5 0 0 0 2.5-2.5V311.29a2.5 2.5 0 0 0-2.5-2.5z"
        transform="matrix(.41143 0 0 .41143 711.977 111.082)"
      />
    </g>
    <g style="fill: #4bafca; fill-opacity: 1">
      <path
        style="fill: #4bafca"
        d="M-82.265 66.702-69.75 88.38l12.515 21.678h-50.063L-94.78 88.38z"
        transform="matrix(.30807 0 0 .72473 776.361 187.714)"
      />
      <path
        style="fill: #4bafca"
        d="M-61.826 308.79a2.5 2.5 0 0 0-2.5 2.5v44.022a2.5 2.5 0 0 0 2.5 2.5 2.5 2.5 0 0 0 2.5-2.5V311.29a2.5 2.5 0 0 0-2.5-2.5z"
        transform="matrix(.41143 0 0 .41143 776.456 127.757)"
      />
    </g>
    <g style="fill: #4bafca; fill-opacity: 1">
      <path
        style="fill: #4bafca"
        d="M-82.265 66.702-69.75 88.38l12.515 21.678h-50.063L-94.78 88.38z"
        transform="matrix(.30807 0 0 .72473 806.377 199.943)"
      />
      <path
        style="fill: #4bafca"
        d="M-61.826 308.79a2.5 2.5 0 0 0-2.5 2.5v44.022a2.5 2.5 0 0 0 2.5 2.5 2.5 2.5 0 0 0 2.5-2.5V311.29a2.5 2.5 0 0 0-2.5-2.5z"
        transform="matrix(.41143 0 0 .41143 806.471 139.986)"
      />
    </g>
    <g style="fill: #4bafca; fill-opacity: 1">
      <path
        style="fill: #4bafca"
        d="M-82.265 66.702-69.75 88.38l12.515 21.678h-50.063L-94.78 88.38z"
        transform="matrix(.30807 0 0 .72473 741.899 239.964)"
      />
      <path
        style="fill: #4bafca"
        d="M-61.826 308.79a2.5 2.5 0 0 0-2.5 2.5v44.022a2.5 2.5 0 0 0 2.5 2.5 2.5 2.5 0 0 0 2.5-2.5V311.29a2.5 2.5 0 0 0-2.5-2.5z"
        transform="matrix(.41143 0 0 .41143 741.993 180.007)"
      />
    </g>
    <g style="fill: #4bafca; fill-opacity: 1">
      <path
        style="fill: #4bafca"
        d="M-82.265 66.702-69.75 88.38l12.515 21.678h-50.063L-94.78 88.38z"
        transform="matrix(.30807 0 0 .72473 716.33 252.192)"
      />
      <path
        style="fill: #4bafca"
        d="M-61.826 308.79a2.5 2.5 0 0 0-2.5 2.5v44.022a2.5 2.5 0 0 0 2.5 2.5 2.5 2.5 0 0 0 2.5-2.5V311.29a2.5 2.5 0 0 0-2.5-2.5z"
        transform="matrix(.41143 0 0 .41143 716.424 192.235)"
      />
    </g>
    <g style="fill: #4bafca; fill-opacity: 1">
      <path
        style="fill: #4bafca"
        d="M-82.265 66.702-69.75 88.38l12.515 21.678h-50.063L-94.78 88.38z"
        transform="matrix(.30807 0 0 .72473 725.223 252.192)"
      />
      <path
        style="fill: #4bafca"
        d="M-61.826 308.79a2.5 2.5 0 0 0-2.5 2.5v44.022a2.5 2.5 0 0 0 2.5 2.5 2.5 2.5 0 0 0 2.5-2.5V311.29a2.5 2.5 0 0 0-2.5-2.5z"
        transform="matrix(.41143 0 0 .41143 725.318 192.235)"
      />
    </g>
    <g style="fill: #4bafca; fill-opacity: 1">
      <path
        style="fill: #4bafca"
        d="M-82.265 66.702-69.75 88.38l12.515 21.678h-50.063L-94.78 88.38z"
        transform="matrix(.30807 0 0 .72473 751.904 255.527)"
      />
      <path
        style="fill: #4bafca"
        d="M-61.826 308.79a2.5 2.5 0 0 0-2.5 2.5v44.022a2.5 2.5 0 0 0 2.5 2.5 2.5 2.5 0 0 0 2.5-2.5V311.29a2.5 2.5 0 0 0-2.5-2.5z"
        transform="matrix(.41143 0 0 .41143 751.998 195.57)"
      />
    </g>
    <g style="fill: #4bafca; fill-opacity: 1">
      <path
        style="fill: #4bafca"
        d="M-82.265 66.702-69.75 88.38l12.515 21.678h-50.063L-94.78 88.38z"
        transform="matrix(.30807 0 0 .72473 753.016 255.527)"
      />
      <path
        style="fill: #4bafca"
        d="M-61.826 308.79a2.5 2.5 0 0 0-2.5 2.5v44.022a2.5 2.5 0 0 0 2.5 2.5 2.5 2.5 0 0 0 2.5-2.5V311.29a2.5 2.5 0 0 0-2.5-2.5z"
        transform="matrix(.41143 0 0 .41143 753.11 195.57)"
      />
    </g>
    <g style="fill: #4bafca; fill-opacity: 1">
      <path
        style="fill: #4bafca"
        d="M-82.265 66.702-69.75 88.38l12.515 21.678h-50.063L-94.78 88.38z"
        transform="matrix(.30807 0 0 .72473 914.857 222.003)"
      />
      <path
        style="fill: #4bafca"
        d="M-61.826 308.79a2.5 2.5 0 0 0-2.5 2.5v44.022a2.5 2.5 0 0 0 2.5 2.5 2.5 2.5 0 0 0 2.5-2.5V311.29a2.5 2.5 0 0 0-2.5-2.5z"
        transform="matrix(.41143 0 0 .41143 914.951 162.046)"
      />
    </g>
    <g style="fill: #4bafca; fill-opacity: 1">
      <path
        style="fill: #4bafca"
        d="M-82.265 66.702-69.75 88.38l12.515 21.678h-50.063L-94.78 88.38z"
        transform="matrix(.37242 -.16841 .3962 .87612 914.09 185.316)"
      />
      <path
        style="fill: #4bafca"
        d="M-61.826 308.79a2.5 2.5 0 0 0-2.5 2.5v44.022a2.5 2.5 0 0 0 2.5 2.5 2.5 2.5 0 0 0 2.5-2.5V311.29a2.5 2.5 0 0 0-2.5-2.5z"
        transform="matrix(.49737 -.22492 .22492 .49737 881.428 112.783)"
      />
    </g>
    <g style="fill: #4bafca; fill-opacity: 1">
      <path
        style="fill: #4bafca"
        d="M-82.265 66.702-69.75 88.38l12.515 21.678h-50.063L-94.78 88.38z"
        transform="matrix(.30807 0 0 .72473 866.408 265.532)"
      />
      <path
        style="fill: #4bafca"
        d="M-61.826 308.79a2.5 2.5 0 0 0-2.5 2.5v44.022a2.5 2.5 0 0 0 2.5 2.5 2.5 2.5 0 0 0 2.5-2.5V311.29a2.5 2.5 0 0 0-2.5-2.5z"
        transform="matrix(.41143 0 0 .41143 866.503 205.576)"
      />
    </g>
    <g style="fill: #4bafca; fill-opacity: 1">
      <path
        style="fill: #4bafca"
        d="M-82.265 66.702-69.75 88.38l12.515 21.678h-50.063L-94.78 88.38z"
        transform="matrix(.30807 0 0 .72473 874.19 256.639)"
      />
      <path
        style="fill: #4bafca"
        d="M-61.826 308.79a2.5 2.5 0 0 0-2.5 2.5v44.022a2.5 2.5 0 0 0 2.5 2.5 2.5 2.5 0 0 0 2.5-2.5V311.29a2.5 2.5 0 0 0-2.5-2.5z"
        transform="matrix(.41143 0 0 .41143 874.285 196.682)"
      />
    </g>
    <g style="fill: #4bafca; fill-opacity: 1">
      <path
        style="fill: #4bafca"
        d="M-82.265 66.702-69.75 88.38l12.515 21.678h-50.063L-94.78 88.38z"
        transform="matrix(.30807 0 0 .72473 913.1 269.98)"
      />
      <path
        style="fill: #4bafca"
        d="M-61.826 308.79a2.5 2.5 0 0 0-2.5 2.5v44.022a2.5 2.5 0 0 0 2.5 2.5 2.5 2.5 0 0 0 2.5-2.5V311.29a2.5 2.5 0 0 0-2.5-2.5z"
        transform="matrix(.41143 0 0 .41143 913.194 210.023)"
      />
    </g>
    <g style="fill: #4bafca; fill-opacity: 1">
      <path
        style="fill: #4bafca"
        d="M-82.265 66.702-69.75 88.38l12.515 21.678h-50.063L-94.78 88.38z"
        transform="matrix(.30807 0 0 .72473 939.78 292.213)"
      />
      <path
        style="fill: #4bafca"
        d="M-61.826 308.79a2.5 2.5 0 0 0-2.5 2.5v44.022a2.5 2.5 0 0 0 2.5 2.5 2.5 2.5 0 0 0 2.5-2.5V311.29a2.5 2.5 0 0 0-2.5-2.5z"
        transform="matrix(.41143 0 0 .41143 939.875 232.256)"
      />
    </g>
    <g style="fill: #4bafca; fill-opacity: 1">
      <path
        style="fill: #4bafca"
        d="M-82.265 66.702-69.75 88.38l12.515 21.678h-50.063L-94.78 88.38z"
        transform="matrix(.26467 -.15765 .37088 .62264 942.647 247.662)"
      />
      <path
        style="fill: #4bafca"
        d="M-61.826 308.79a2.5 2.5 0 0 0-2.5 2.5v44.022a2.5 2.5 0 0 0 2.5 2.5 2.5 2.5 0 0 0 2.5-2.5V311.29a2.5 2.5 0 0 0-2.5-2.5z"
        transform="rotate(-30.781 812.251 -1558.645) scale(.41143)"
      />
    </g>
    <g style="fill: #4bafca; fill-opacity: 1">
      <path
        style="fill: #4bafca"
        d="M-82.265 66.702-69.75 88.38l12.515 21.678h-50.063L-94.78 88.38z"
        transform="matrix(.22895 -.20612 .4849 .53862 951.289 198.446)"
      />
      <path
        style="fill: #4bafca"
        d="M-61.826 308.79a2.5 2.5 0 0 0-2.5 2.5v44.022a2.5 2.5 0 0 0 2.5 2.5 2.5 2.5 0 0 0 2.5-2.5V311.29a2.5 2.5 0 0 0-2.5-2.5z"
        transform="rotate(-41.996 656.016 -1110.165) scale(.41143)"
      />
    </g>
    <g style="fill: #4bafca; fill-opacity: 1">
      <path
        style="fill: #4bafca"
        d="M-82.265 66.702-69.75 88.38l12.515 21.678h-50.063L-94.78 88.38z"
        transform="matrix(.22895 -.20612 .4849 .53862 943.507 136.192)"
      />
      <path
        style="fill: #4bafca"
        d="M-61.826 308.79a2.5 2.5 0 0 0-2.5 2.5v44.022a2.5 2.5 0 0 0 2.5 2.5 2.5 2.5 0 0 0 2.5-2.5V311.29a2.5 2.5 0 0 0-2.5-2.5z"
        transform="rotate(-41.996 571.026 -1131.156) scale(.41143)"
      />
    </g>
    <g style="fill: #4bafca; fill-opacity: 1">
      <path
        style="fill: #4bafca"
        d="M-82.265 66.702-69.75 88.38l12.515 21.678h-50.063L-94.78 88.38z"
        transform="matrix(.22895 -.20612 .4849 .53862 964.63 146.197)"
      />
      <path
        style="fill: #4bafca"
        d="M-61.826 308.79a2.5 2.5 0 0 0-2.5 2.5v44.022a2.5 2.5 0 0 0 2.5 2.5 2.5 2.5 0 0 0 2.5-2.5V311.29a2.5 2.5 0 0 0-2.5-2.5z"
        transform="rotate(-41.996 594.62 -1153.67) scale(.41143)"
      />
    </g>
    <g style="fill: #4bafca; fill-opacity: 1">
      <path
        style="fill: #4bafca"
        d="M-82.265 66.702-69.75 88.38l12.515 21.678h-50.063L-94.78 88.38z"
        transform="matrix(.22895 -.20612 .4849 .53862 952.4 158.425)"
      />
      <path
        style="fill: #4bafca"
        d="M-61.826 308.79a2.5 2.5 0 0 0-2.5 2.5v44.022a2.5 2.5 0 0 0 2.5 2.5 2.5 2.5 0 0 0 2.5-2.5V311.29a2.5 2.5 0 0 0-2.5-2.5z"
        transform="rotate(-41.996 604.437 -1131.624) scale(.41143)"
      />
    </g>
    <g style="fill: #4bafca; fill-opacity: 1">
      <path
        style="fill: #4bafca"
        d="M-82.265 66.702-69.75 88.38l12.515 21.678h-50.063L-94.78 88.38z"
        transform="matrix(.22895 -.20612 .4849 .53862 966.72 89.235)"
      />
      <path
        style="fill: #4bafca"
        d="M-61.826 308.79a2.5 2.5 0 0 0-2.5 2.5v44.022a2.5 2.5 0 0 0 2.5 2.5 2.5 2.5 0 0 0 2.5-2.5V311.29a2.5 2.5 0 0 0-2.5-2.5z"
        transform="rotate(-41.996 521.461 -1184.874) scale(.41143)"
      />
    </g>
    <g style="fill: #4bafca; fill-opacity: 1">
      <path
        style="fill: #4bafca"
        d="M-82.265 66.702-69.75 88.38l12.515 21.678h-50.063L-94.78 88.38z"
        transform="matrix(.22895 -.20612 .4849 .53862 959.784 58.022)"
      />
      <path
        style="fill: #4bafca"
        d="M-61.826 308.79a2.5 2.5 0 0 0-2.5 2.5v44.022a2.5 2.5 0 0 0 2.5 2.5 2.5 2.5 0 0 0 2.5-2.5V311.29a2.5 2.5 0 0 0-2.5-2.5z"
        transform="rotate(-41.996 477.333 -1191.445) scale(.41143)"
      />
    </g>
    <g style="fill: #4bafca; fill-opacity: 1">
      <path
        style="fill: #4bafca"
        d="M-82.265 66.702-69.75 88.38l12.515 21.678h-50.063L-94.78 88.38z"
        transform="matrix(.41738 -.02367 .05568 .9819 1032.697 3.623)"
      />
      <path
        style="fill: #4bafca"
        d="M-61.826 308.79a2.5 2.5 0 0 0-2.5 2.5v44.022a2.5 2.5 0 0 0 2.5 2.5 2.5 2.5 0 0 0 2.5-2.5V311.29a2.5 2.5 0 0 0-2.5-2.5z"
        transform="matrix(.55742 -.03161 .03161 .55742 1028.218 -77.615)"
      />
    </g>
    <g style="fill: #4bafca; fill-opacity: 1">
      <path
        style="fill: #4bafca"
        d="M-82.265 66.702-69.75 88.38l12.515 21.678h-50.063L-94.78 88.38z"
        transform="matrix(.30807 0 0 .72473 1022.045 299.995)"
      />
      <path
        style="fill: #4bafca"
        d="M-61.826 308.79a2.5 2.5 0 0 0-2.5 2.5v44.022a2.5 2.5 0 0 0 2.5 2.5 2.5 2.5 0 0 0 2.5-2.5V311.29a2.5 2.5 0 0 0-2.5-2.5z"
        transform="matrix(.41143 0 0 .41143 1022.14 240.038)"
      />
    </g>
    <g style="fill: #4bafca; fill-opacity: 1">
      <path
        style="fill: #4bafca"
        d="M-82.265 66.702-69.75 88.38l12.515 21.678h-50.063L-94.78 88.38z"
        transform="matrix(.30807 0 0 .72473 1026.492 361.138)"
      />
      <path
        style="fill: #4bafca"
        d="M-61.826 308.79a2.5 2.5 0 0 0-2.5 2.5v44.022a2.5 2.5 0 0 0 2.5 2.5 2.5 2.5 0 0 0 2.5-2.5V311.29a2.5 2.5 0 0 0-2.5-2.5z"
        transform="matrix(.41143 0 0 .41143 1026.587 301.181)"
      />
    </g>
    <g style="fill: #4bafca; fill-opacity: 1">
      <path
        style="fill: #4bafca"
        d="M-82.265 66.702-69.75 88.38l12.515 21.678h-50.063L-94.78 88.38z"
        transform="matrix(.30807 0 0 .72473 979.801 323.34)"
      />
      <path
        style="fill: #4bafca"
        d="M-61.826 308.79a2.5 2.5 0 0 0-2.5 2.5v44.022a2.5 2.5 0 0 0 2.5 2.5 2.5 2.5 0 0 0 2.5-2.5V311.29a2.5 2.5 0 0 0-2.5-2.5z"
        transform="matrix(.41143 0 0 .41143 979.895 263.384)"
      />
    </g>
    <g style="fill: #4bafca; fill-opacity: 1">
      <path
        style="fill: #4bafca"
        d="M-82.265 66.702-69.75 88.38l12.515 21.678h-50.063L-94.78 88.38z"
        transform="matrix(.30807 0 0 .72473 730.383 210.62)"
      />
      <path
        style="fill: #4bafca"
        d="M-61.826 308.79a2.5 2.5 0 0 0-2.5 2.5v44.022a2.5 2.5 0 0 0 2.5 2.5 2.5 2.5 0 0 0 2.5-2.5V311.29a2.5 2.5 0 0 0-2.5-2.5z"
        transform="matrix(.41143 0 0 .41143 730.477 150.664)"
      />
    </g>
    <g style="fill: #4bafca; fill-opacity: 1">
      <path
        style="fill: #4bafca"
        d="M-82.265 66.702-69.75 88.38l12.515 21.678h-50.063L-94.78 88.38z"
        transform="matrix(.30807 0 0 .72473 624.06 318.894)"
      />
      <path
        style="fill: #4bafca"
        d="M-61.826 308.79a2.5 2.5 0 0 0-2.5 2.5v44.022a2.5 2.5 0 0 0 2.5 2.5 2.5 2.5 0 0 0 2.5-2.5V311.29a2.5 2.5 0 0 0-2.5-2.5z"
        transform="matrix(.41143 0 0 .41143 624.154 258.937)"
      />
    </g>
    <g style="fill: #4bafca; fill-opacity: 1">
      <path
        style="fill: #4bafca"
        d="M-82.265 66.702-69.75 88.38l12.515 21.678h-50.063L-94.78 88.38z"
        transform="matrix(.30807 0 0 .72473 558.47 367.808)"
      />
      <path
        style="fill: #4bafca"
        d="M-61.826 308.79a2.5 2.5 0 0 0-2.5 2.5v44.022a2.5 2.5 0 0 0 2.5 2.5 2.5 2.5 0 0 0 2.5-2.5V311.29a2.5 2.5 0 0 0-2.5-2.5z"
        transform="matrix(.41143 0 0 .41143 558.564 307.852)"
      />
    </g>
    <g style="fill: #4bafca; fill-opacity: 1">
      <path
        style="fill: #4bafca"
        d="M-82.265 66.702-69.75 88.38l12.515 21.678h-50.063L-94.78 88.38z"
        transform="matrix(.30807 0 0 .72473 490.656 382.26)"
      />
      <path
        style="fill: #4bafca"
        d="M-61.826 308.79a2.5 2.5 0 0 0-2.5 2.5v44.022a2.5 2.5 0 0 0 2.5 2.5 2.5 2.5 0 0 0 2.5-2.5V311.29a2.5 2.5 0 0 0-2.5-2.5z"
        transform="matrix(.41143 0 0 .41143 490.75 322.304)"
      />
    </g>
    <g style="fill: #4bafca; fill-opacity: 1">
      <path
        style="fill: #4bafca"
        d="M-82.265 66.702-69.75 88.38l12.515 21.678h-50.063L-94.78 88.38z"
        transform="matrix(.30807 0 0 .72473 453.97 346.686)"
      />
      <path
        style="fill: #4bafca"
        d="M-61.826 308.79a2.5 2.5 0 0 0-2.5 2.5v44.022a2.5 2.5 0 0 0 2.5 2.5 2.5 2.5 0 0 0 2.5-2.5V311.29a2.5 2.5 0 0 0-2.5-2.5z"
        transform="matrix(.41143 0 0 .41143 454.065 286.73)"
      />
    </g>
    <g style="fill: #1f7791; fill-opacity: 1">
      <path
        style="fill: #1f7791"
        d="M-82.265 66.702-69.75 88.38l12.515 21.678h-50.063L-94.78 88.38z"
        transform="matrix(.57453 0 0 1.3516 870.477 309.154)"
      />
      <path
        style="fill: #1f7791"
        d="M-61.826 308.79a2.5 2.5 0 0 0-2.5 2.5v44.022a2.5 2.5 0 0 0 2.5 2.5 2.5 2.5 0 0 0 2.5-2.5V311.29a2.5 2.5 0 0 0-2.5-2.5z"
        transform="matrix(.7673 0 0 .7673 870.653 197.336)"
      />
    </g>
    <g style="fill: #1f7791; fill-opacity: 1">
      <path
        style="fill: #1f7791"
        d="M-82.265 66.702-69.75 88.38l12.515 21.678h-50.063L-94.78 88.38z"
        transform="matrix(.57453 0 0 1.3516 938.682 350.77)"
      />
      <path
        style="fill: #1f7791"
        d="M-61.826 308.79a2.5 2.5 0 0 0-2.5 2.5v44.022a2.5 2.5 0 0 0 2.5 2.5 2.5 2.5 0 0 0 2.5-2.5V311.29a2.5 2.5 0 0 0-2.5-2.5z"
        transform="matrix(.7673 0 0 .7673 938.857 238.952)"
      />
    </g>
    <g style="fill: #1f7791; fill-opacity: 1">
      <path
        style="fill: #1f7791"
        d="M-82.265 66.702-69.75 88.38l12.515 21.678h-50.063L-94.78 88.38z"
        transform="matrix(.57453 0 0 1.3516 982.61 288.346)"
      />
      <path
        style="fill: #1f7791"
        d="M-61.826 308.79a2.5 2.5 0 0 0-2.5 2.5v44.022a2.5 2.5 0 0 0 2.5 2.5 2.5 2.5 0 0 0 2.5-2.5V311.29a2.5 2.5 0 0 0-2.5-2.5z"
        transform="matrix(.7673 0 0 .7673 982.786 176.528)"
      />
    </g>
    <g style="fill: #1f7791; fill-opacity: 1">
      <path
        style="fill: #1f7791"
        d="M-82.265 66.702-69.75 88.38l12.515 21.678h-50.063L-94.78 88.38z"
        transform="matrix(.57453 0 0 1.3516 1023.07 403.947)"
      />
      <path
        style="fill: #1f7791"
        d="M-61.826 308.79a2.5 2.5 0 0 0-2.5 2.5v44.022a2.5 2.5 0 0 0 2.5 2.5 2.5 2.5 0 0 0 2.5-2.5V311.29a2.5 2.5 0 0 0-2.5-2.5z"
        transform="matrix(.7673 0 0 .7673 1023.246 292.129)"
      />
    </g>
    <g style="fill: #1f7791; fill-opacity: 1">
      <path
        style="fill: #1f7791"
        d="M-82.265 66.702-69.75 88.38l12.515 21.678h-50.063L-94.78 88.38z"
        transform="matrix(.57453 0 0 1.3516 842.733 403.947)"
      />
      <path
        style="fill: #1f7791"
        d="M-61.826 308.79a2.5 2.5 0 0 0-2.5 2.5v44.022a2.5 2.5 0 0 0 2.5 2.5 2.5 2.5 0 0 0 2.5-2.5V311.29a2.5 2.5 0 0 0-2.5-2.5z"
        transform="matrix(.7673 0 0 .7673 842.909 292.129)"
      />
    </g>
    <g style="fill: #1f7791; fill-opacity: 1">
      <path
        style="fill: #1f7791"
        d="M-82.265 66.702-69.75 88.38l12.515 21.678h-50.063L-94.78 88.38z"
        transform="matrix(.57453 0 0 1.3516 730.6 402.79)"
      />
      <path
        style="fill: #1f7791"
        d="M-61.826 308.79a2.5 2.5 0 0 0-2.5 2.5v44.022a2.5 2.5 0 0 0 2.5 2.5 2.5 2.5 0 0 0 2.5-2.5V311.29a2.5 2.5 0 0 0-2.5-2.5z"
        transform="matrix(.7673 0 0 .7673 730.776 290.973)"
      />
    </g>
    <g style="fill: #1f7791; fill-opacity: 1">
      <path
        style="fill: #1f7791"
        d="M-82.265 66.702-69.75 88.38l12.515 21.678h-50.063L-94.78 88.38z"
        transform="matrix(.57453 0 0 1.3516 916.8 237.528)"
      />
      <path
        style="fill: #1f7791"
        d="M-61.826 308.79a2.5 2.5 0 0 0-2.5 2.5v44.022a2.5 2.5 0 0 0 2.5 2.5 2.5 2.5 0 0 0 2.5-2.5V311.29a2.5 2.5 0 0 0-2.5-2.5z"
        transform="matrix(.7673 0 0 .7673 916.976 125.71)"
      />
    </g>
    <g style="fill: #1f7791; fill-opacity: 1">
      <path
        style="fill: #1f7791"
        d="M-82.265 66.702-69.75 88.38l12.515 21.678h-50.063L-94.78 88.38z"
        transform="matrix(.57453 0 0 1.3516 868.997 237.528)"
      />
      <path
        style="fill: #1f7791"
        d="M-61.826 308.79a2.5 2.5 0 0 0-2.5 2.5v44.022a2.5 2.5 0 0 0 2.5 2.5 2.5 2.5 0 0 0 2.5-2.5V311.29a2.5 2.5 0 0 0-2.5-2.5z"
        transform="matrix(.7673 0 0 .7673 869.173 125.71)"
      />
    </g>
    <g style="fill: #1f7791; fill-opacity: 1">
      <path
        style="fill: #1f7791"
        d="M-82.265 66.702-69.75 88.38l12.515 21.678h-50.063L-94.78 88.38z"
        transform="matrix(.57453 0 0 1.3516 834.41 246.96)"
      />
      <path
        style="fill: #1f7791"
        d="M-61.826 308.79a2.5 2.5 0 0 0-2.5 2.5v44.022a2.5 2.5 0 0 0 2.5 2.5 2.5 2.5 0 0 0 2.5-2.5V311.29a2.5 2.5 0 0 0-2.5-2.5z"
        transform="matrix(.7673 0 0 .7673 834.586 135.143)"
      />
    </g>
    <g style="fill: #1f7791; fill-opacity: 1">
      <path
        style="fill: #1f7791"
        d="M-82.265 66.702-69.75 88.38l12.515 21.678h-50.063L-94.78 88.38z"
        transform="matrix(.57453 0 0 1.3516 474.382 347.58)"
      />
      <path
        style="fill: #1f7791"
        d="M-61.826 308.79a2.5 2.5 0 0 0-2.5 2.5v44.022a2.5 2.5 0 0 0 2.5 2.5 2.5 2.5 0 0 0 2.5-2.5V311.29a2.5 2.5 0 0 0-2.5-2.5z"
        transform="matrix(.7673 0 0 .7673 474.558 235.762)"
      />
    </g>
    <g style="fill: #1f7791; fill-opacity: 1">
      <path
        style="fill: #1f7791"
        d="M-82.265 66.702-69.75 88.38l12.515 21.678h-50.063L-94.78 88.38z"
        transform="matrix(.57453 0 0 1.3516 597.012 358.585)"
      />
      <path
        style="fill: #1f7791"
        d="M-61.826 308.79a2.5 2.5 0 0 0-2.5 2.5v44.022a2.5 2.5 0 0 0 2.5 2.5 2.5 2.5 0 0 0 2.5-2.5V311.29a2.5 2.5 0 0 0-2.5-2.5z"
        transform="matrix(.7673 0 0 .7673 597.188 246.767)"
      />
    </g>
    <g style="fill: #1f7791; fill-opacity: 1">
      <path
        style="fill: #1f7791"
        d="M-82.265 66.702-69.75 88.38l12.515 21.678h-50.063L-94.78 88.38z"
        transform="matrix(.57453 0 0 1.3516 524.692 386.884)"
      />
      <path
        style="fill: #1f7791"
        d="M-61.826 308.79a2.5 2.5 0 0 0-2.5 2.5v44.022a2.5 2.5 0 0 0 2.5 2.5 2.5 2.5 0 0 0 2.5-2.5V311.29a2.5 2.5 0 0 0-2.5-2.5z"
        transform="matrix(.7673 0 0 .7673 524.868 275.066)"
      />
    </g>
    <g style="fill: #1f7791; fill-opacity: 1">
      <path
        style="fill: #1f7791"
        d="M-82.265 66.702-69.75 88.38l12.515 21.678h-50.063L-94.78 88.38z"
        transform="matrix(.57453 0 0 1.3516 659.899 386.884)"
      />
      <path
        style="fill: #1f7791"
        d="M-61.826 308.79a2.5 2.5 0 0 0-2.5 2.5v44.022a2.5 2.5 0 0 0 2.5 2.5 2.5 2.5 0 0 0 2.5-2.5V311.29a2.5 2.5 0 0 0-2.5-2.5z"
        transform="matrix(.7673 0 0 .7673 660.075 275.066)"
      />
    </g>
    <g style="fill: #1f7791; fill-opacity: 1">
      <path
        style="fill: #1f7791"
        d="M-82.265 66.702-69.75 88.38l12.515 21.678h-50.063L-94.78 88.38z"
        transform="matrix(.57453 0 0 1.3516 287.294 265.827)"
      />
      <path
        style="fill: #1f7791"
        d="M-61.826 308.79a2.5 2.5 0 0 0-2.5 2.5v44.022a2.5 2.5 0 0 0 2.5 2.5 2.5 2.5 0 0 0 2.5-2.5V311.29a2.5 2.5 0 0 0-2.5-2.5z"
        transform="matrix(.7673 0 0 .7673 287.47 154.009)"
      />
    </g>
    <g style="fill: #1f7791; fill-opacity: 1">
      <path
        style="fill: #1f7791"
        d="M-82.265 66.702-69.75 88.38l12.515 21.678h-50.063L-94.78 88.38z"
        transform="matrix(.57453 0 0 1.3516 232.268 179.357)"
      />
      <path
        style="fill: #1f7791"
        d="M-61.826 308.79a2.5 2.5 0 0 0-2.5 2.5v44.022a2.5 2.5 0 0 0 2.5 2.5 2.5 2.5 0 0 0 2.5-2.5V311.29a2.5 2.5 0 0 0-2.5-2.5z"
        transform="matrix(.7673 0 0 .7673 232.444 67.54)"
      />
    </g>
    <g style="fill: #1f7791; fill-opacity: 1">
      <path
        style="fill: #1f7791"
        d="M-82.265 66.702-69.75 88.38l12.515 21.678h-50.063L-94.78 88.38z"
        transform="matrix(.57453 0 0 1.3516 194.536 108.61)"
      />
      <path
        style="fill: #1f7791"
        d="M-61.826 308.79a2.5 2.5 0 0 0-2.5 2.5v44.022a2.5 2.5 0 0 0 2.5 2.5 2.5 2.5 0 0 0 2.5-2.5V311.29a2.5 2.5 0 0 0-2.5-2.5z"
        transform="matrix(.7673 0 0 .7673 194.712 -3.208)"
      />
    </g>
    <g style="fill: #1f7791; fill-opacity: 1">
      <path
        style="fill: #1f7791"
        d="M-82.265 66.702-69.75 88.38l12.515 21.678h-50.063L-94.78 88.38z"
        transform="matrix(.57453 0 0 1.3516 133.221 102.321)"
      />
      <path
        style="fill: #1f7791"
        d="M-61.826 308.79a2.5 2.5 0 0 0-2.5 2.5v44.022a2.5 2.5 0 0 0 2.5 2.5 2.5 2.5 0 0 0 2.5-2.5V311.29a2.5 2.5 0 0 0-2.5-2.5z"
        transform="matrix(.7673 0 0 .7673 133.397 -9.497)"
      />
    </g>
    <g style="fill: #1f7791; fill-opacity: 1">
      <path
        style="fill: #1f7791"
        d="M-82.265 66.702-69.75 88.38l12.515 21.678h-50.063L-94.78 88.38z"
        transform="matrix(.57453 0 0 1.3516 78.195 394.745)"
      />
      <path
        style="fill: #1f7791"
        d="M-61.826 308.79a2.5 2.5 0 0 0-2.5 2.5v44.022a2.5 2.5 0 0 0 2.5 2.5 2.5 2.5 0 0 0 2.5-2.5V311.29a2.5 2.5 0 0 0-2.5-2.5z"
        transform="matrix(.7673 0 0 .7673 78.371 282.927)"
      />
    </g>
  </g>
  <path
    style="stop-color: #000; stop-opacity: 1; fill: #a4d3ec"
    d="M243.629 202.883a1.5 1.5 0 0 0-1.004.44 1.5 1.5 0 0 0 0 2.12l7.861 7.862a1.5 1.5 0 0 0 2.121 0 1.5 1.5 0 0 0 0-2.123l-7.859-7.86a1.5 1.5 0 0 0-1.12-.44zM74.62 334.159a1.5 1.5 0 0 0-1.003.44 1.5 1.5 0 0 0 0 2.12l7.861 7.862a1.5 1.5 0 0 0 2.121 0 1.5 1.5 0 0 0 0-2.123l-7.86-7.86a1.5 1.5 0 0 0-1.118-.439zM68.332 342.02a1.5 1.5 0 0 0-1.004.44 1.5 1.5 0 0 0 0 2.12l7.862 7.862a1.5 1.5 0 0 0 2.12 0 1.5 1.5 0 0 0 0-2.123l-7.859-7.86a1.5 1.5 0 0 0-1.119-.44zM71.476 430.061a1.5 1.5 0 0 0-1.003.44 1.5 1.5 0 0 0 0 2.121l7.86 7.861a1.5 1.5 0 0 0 2.122 0 1.5 1.5 0 0 0 0-2.123l-7.86-7.86a1.5 1.5 0 0 0-1.119-.439zM189.39 428.49a1.5 1.5 0 0 0-1.005.439 1.5 1.5 0 0 0 0 2.12l7.862 7.862a1.5 1.5 0 0 0 2.12 0 1.5 1.5 0 0 0 0-2.123l-7.859-7.86a1.5 1.5 0 0 0-1.119-.439zM190.961 304.288a1.5 1.5 0 0 0-1.003.44 1.5 1.5 0 0 0 0 2.12l7.86 7.862a1.5 1.5 0 0 0 2.122 0 1.5 1.5 0 0 0 0-2.123l-7.86-7.86a1.5 1.5 0 0 0-1.119-.44zM124.93 216.246a1.5 1.5 0 0 0-1.004.44 1.5 1.5 0 0 0 0 2.12l7.862 7.862a1.5 1.5 0 0 0 2.12 0 1.5 1.5 0 0 0 0-2.123l-7.859-7.86a1.5 1.5 0 0 0-1.119-.439zM115.497 85.756a1.5 1.5 0 0 0-1.004.44 1.5 1.5 0 0 0 0 2.12l7.862 7.862a1.5 1.5 0 0 0 2.12 0 1.5 1.5 0 0 0 0-2.123l-7.859-7.86a1.5 1.5 0 0 0-1.119-.44zM142.224 29.158a1.5 1.5 0 0 0-1.004.44 1.5 1.5 0 0 0 0 2.12l7.862 7.862a1.5 1.5 0 0 0 2.12 0 1.5 1.5 0 0 0 0-2.123l-7.859-7.86a1.5 1.5 0 0 0-1.119-.44zM245.987 49.596a1.5 1.5 0 0 0-1.003.44 1.5 1.5 0 0 0 0 2.12l7.86 7.862a1.5 1.5 0 0 0 2.122 0 1.5 1.5 0 0 0 0-2.123l-7.86-7.86a1.5 1.5 0 0 0-1.119-.439zM249.132 161.22a1.5 1.5 0 0 0-1.004.44 1.5 1.5 0 0 0 0 2.12l7.861 7.862a1.5 1.5 0 0 0 2.121 0 1.5 1.5 0 0 0 0-2.123l-7.86-7.86a1.5 1.5 0 0 0-1.118-.439zM35.316 197.38a1.5 1.5 0 0 0-1.003.44 1.5 1.5 0 0 0 0 2.12l7.86 7.862a1.5 1.5 0 0 0 2.122 0 1.5 1.5 0 0 0 0-2.123l-7.86-7.86a1.5 1.5 0 0 0-1.119-.439zM139.08 301.143a1.5 1.5 0 0 0-1.004.44 1.5 1.5 0 0 0 0 2.12l7.861 7.862a1.5 1.5 0 0 0 2.121 0 1.5 1.5 0 0 0 0-2.123l-7.86-7.86a1.5 1.5 0 0 0-1.118-.439zM308.874 395.474a1.5 1.5 0 0 0-1.004.44 1.5 1.5 0 0 0 0 2.12l7.862 7.862a1.5 1.5 0 0 0 2.12 0 1.5 1.5 0 0 0 0-2.123l-7.859-7.86a1.5 1.5 0 0 0-1.119-.44zM368.617 293.283a1.5 1.5 0 0 0-1.004.439 1.5 1.5 0 0 0 0 2.121l7.861 7.861a1.5 1.5 0 0 0 2.121 0 1.5 1.5 0 0 0 0-2.123l-7.86-7.859a1.5 1.5 0 0 0-1.118-.44zM434.648 191.091a1.5 1.5 0 0 0-1.004.44 1.5 1.5 0 0 0 0 2.121l7.861 7.861a1.5 1.5 0 0 0 2.122 0 1.5 1.5 0 0 0 0-2.123l-7.86-7.86a1.5 1.5 0 0 0-1.119-.439zM462.947 66.89a1.5 1.5 0 0 0-1.004.44 1.5 1.5 0 0 0 0 2.12l7.862 7.862a1.5 1.5 0 0 0 2.12 0 1.5 1.5 0 0 0 0-2.123l-7.859-7.86a1.5 1.5 0 0 0-1.119-.44zM365.472 48.024a1.5 1.5 0 0 0-1.003.44 1.5 1.5 0 0 0 0 2.12l7.86 7.862a1.5 1.5 0 0 0 2.122 0 1.5 1.5 0 0 0 0-2.123l-7.86-7.86a1.5 1.5 0 0 0-1.119-.44zM379.622 176.942a1.5 1.5 0 0 0-1.004.44 1.5 1.5 0 0 0 0 2.12l7.861 7.862a1.5 1.5 0 0 0 2.122 0 1.5 1.5 0 0 0 0-2.123l-7.86-7.86a1.5 1.5 0 0 0-1.119-.44zM521.117 244.545a1.5 1.5 0 0 0-1.003.44 1.5 1.5 0 0 0 0 2.12l7.86 7.862a1.5 1.5 0 0 0 2.122 0 1.5 1.5 0 0 0 0-2.123l-7.86-7.86a1.5 1.5 0 0 0-1.119-.439zM491.246 398.618a1.5 1.5 0 0 0-1.004.44 1.5 1.5 0 0 0 0 2.12l7.862 7.862a1.5 1.5 0 0 0 2.12 0 1.5 1.5 0 0 0 0-2.123l-7.859-7.86a1.5 1.5 0 0 0-1.119-.439zM362.328 500.81a1.5 1.5 0 0 0-1.004.439 1.5 1.5 0 0 0 0 2.12l7.862 7.862a1.5 1.5 0 0 0 2.12 0 1.5 1.5 0 0 0 0-2.123l-7.859-7.86a1.5 1.5 0 0 0-1.119-.439zM124.93 521.247a1.5 1.5 0 0 0-1.004.44 1.5 1.5 0 0 0 0 2.12l7.862 7.862a1.5 1.5 0 0 0 2.12 0 1.5 1.5 0 0 0 0-2.123l-7.859-7.86a1.5 1.5 0 0 0-1.119-.439zM492.818 469.366a1.5 1.5 0 0 0-1.004.44 1.5 1.5 0 0 0 0 2.12l7.862 7.862a1.5 1.5 0 0 0 2.12 0 1.5 1.5 0 0 0 0-2.123l-7.859-7.86a1.5 1.5 0 0 0-1.119-.44zM650.035 264.983a1.5 1.5 0 0 0-1.003.44 1.5 1.5 0 0 0 0 2.121l7.86 7.861a1.5 1.5 0 0 0 2.122 0 1.5 1.5 0 0 0 0-2.123l-7.86-7.86a1.5 1.5 0 0 0-1.119-.439zM687.768 109.338a1.5 1.5 0 0 0-1.004.44 1.5 1.5 0 0 0 0 2.121l7.861 7.861a1.5 1.5 0 0 0 2.121 0 1.5 1.5 0 0 0 0-2.123l-7.86-7.859a1.5 1.5 0 0 0-1.118-.44zM837.124 103.05a1.5 1.5 0 0 0-1.004.44 1.5 1.5 0 0 0 0 2.12l7.861 7.862a1.5 1.5 0 0 0 2.121 0 1.5 1.5 0 0 0 0-2.123l-7.859-7.86a1.5 1.5 0 0 0-1.12-.44zM889.006 154.931a1.5 1.5 0 0 0-1.004.44 1.5 1.5 0 0 0 0 2.121l7.86 7.861a1.5 1.5 0 0 0 2.122 0 1.5 1.5 0 0 0 0-2.123l-7.86-7.86a1.5 1.5 0 0 0-1.118-.439zM889.006 197.38a1.5 1.5 0 0 0-1.004.44 1.5 1.5 0 0 0 0 2.12l7.86 7.862a1.5 1.5 0 0 0 2.122 0 1.5 1.5 0 0 0 0-2.123l-7.86-7.86a1.5 1.5 0 0 0-1.118-.439zM906.3 52.74a1.5 1.5 0 0 0-1.004.44 1.5 1.5 0 0 0 0 2.12l7.86 7.862a1.5 1.5 0 0 0 2.122 0 1.5 1.5 0 0 0 0-2.123l-7.86-7.86a1.5 1.5 0 0 0-1.119-.439zM632.742 32.302a1.5 1.5 0 0 0-1.004.44 1.5 1.5 0 0 0 0 2.12l7.861 7.862a1.5 1.5 0 0 0 2.121 0 1.5 1.5 0 0 0 0-2.123l-7.86-7.86a1.5 1.5 0 0 0-1.118-.439zM612.303 162.792a1.5 1.5 0 0 0-1.004.44 1.5 1.5 0 0 0 0 2.12l7.862 7.862a1.5 1.5 0 0 0 2.12 0 1.5 1.5 0 0 0 0-2.123l-7.858-7.86a1.5 1.5 0 0 0-1.12-.439zM763.232 263.411a1.5 1.5 0 0 0-1.004.44 1.5 1.5 0 0 0 0 2.12l7.861 7.862a1.5 1.5 0 0 0 2.121 0 1.5 1.5 0 0 0 0-2.123l-7.859-7.86a1.5 1.5 0 0 0-1.12-.439zM767.948 327.87a1.5 1.5 0 0 0-1.004.44 1.5 1.5 0 0 0 0 2.12l7.862 7.862a1.5 1.5 0 0 0 2.12 0 1.5 1.5 0 0 0 0-2.123l-7.859-7.86a1.5 1.5 0 0 0-1.119-.439zM822.974 431.634a1.5 1.5 0 0 0-1.004.44 1.5 1.5 0 0 0 0 2.12l7.862 7.861a1.5 1.5 0 0 0 2.12 0 1.5 1.5 0 0 0 0-2.123l-7.859-7.859a1.5 1.5 0 0 0-1.119-.44zM714.495 475.654a1.5 1.5 0 0 0-1.004.44 1.5 1.5 0 0 0 0 2.121l7.86 7.861a1.5 1.5 0 0 0 2.122 0 1.5 1.5 0 0 0 0-2.123l-7.86-7.86a1.5 1.5 0 0 0-1.118-.439zM623.309 502.381a1.5 1.5 0 0 0-1.004.44 1.5 1.5 0 0 0 0 2.12l7.861 7.862a1.5 1.5 0 0 0 2.121 0 1.5 1.5 0 0 0 0-2.123l-7.86-7.86a1.5 1.5 0 0 0-1.118-.439zM637.458 392.33a1.5 1.5 0 0 0-1.004.439 1.5 1.5 0 0 0 0 2.12l7.862 7.862a1.5 1.5 0 0 0 2.12 0 1.5 1.5 0 0 0 0-2.123l-7.859-7.86a1.5 1.5 0 0 0-1.119-.439zM516.4 538.541a1.5 1.5 0 0 0-1.003.44 1.5 1.5 0 0 0 0 2.12l7.861 7.862a1.5 1.5 0 0 0 2.121 0 1.5 1.5 0 0 0 0-2.123l-7.859-7.86a1.5 1.5 0 0 0-1.12-.439zM907.872 533.825a1.5 1.5 0 0 0-1.004.44 1.5 1.5 0 0 0 0 2.12l7.861 7.862a1.5 1.5 0 0 0 2.121 0 1.5 1.5 0 0 0 0-2.123l-7.86-7.86a1.5 1.5 0 0 0-1.118-.44zM937.743 360.886a1.5 1.5 0 0 0-1.004.44 1.5 1.5 0 0 0 0 2.12l7.861 7.862a1.5 1.5 0 0 0 2.121 0 1.5 1.5 0 0 0 0-2.123l-7.859-7.86a1.5 1.5 0 0 0-1.12-.44zM958.181 268.128a1.5 1.5 0 0 0-1.004.44 1.5 1.5 0 0 0 0 2.12l7.861 7.862a1.5 1.5 0 0 0 2.122 0 1.5 1.5 0 0 0 0-2.123l-7.86-7.86a1.5 1.5 0 0 0-1.119-.44zM844.985 285.422a1.5 1.5 0 0 0-1.004.44 1.5 1.5 0 0 0 0 2.12l7.861 7.862a1.5 1.5 0 0 0 2.121 0 1.5 1.5 0 0 0 0-2.123l-7.86-7.86a1.5 1.5 0 0 0-1.118-.44zM997.485 106.194a1.5 1.5 0 0 0-1.004.44 1.5 1.5 0 0 0 0 2.12l7.862 7.862a1.5 1.5 0 0 0 2.12 0 1.5 1.5 0 0 0 0-2.123l-7.859-7.86a1.5 1.5 0 0 0-1.119-.439zM978.62 11.864a1.5 1.5 0 0 0-1.005.44 1.5 1.5 0 0 0 0 2.12l7.862 7.862a1.5 1.5 0 0 0 2.12 0 1.5 1.5 0 0 0 0-2.123l-7.859-7.86a1.5 1.5 0 0 0-1.119-.44zM271.142 513.387a1.5 1.5 0 0 0-1.004.439 1.5 1.5 0 0 0 0 2.121l7.862 7.861a1.5 1.5 0 0 0 2.12 0 1.5 1.5 0 0 0 0-2.123l-7.859-7.859a1.5 1.5 0 0 0-1.119-.44zM395.344 329.442a1.5 1.5 0 0 0-1.004.44 1.5 1.5 0 0 0 0 2.121l7.861 7.861a1.5 1.5 0 0 0 2.121 0 1.5 1.5 0 0 0 0-2.123l-7.86-7.859a1.5 1.5 0 0 0-1.118-.44zM279.003 309.004a1.5 1.5 0 0 0-1.004.44 1.5 1.5 0 0 0 0 2.12l7.861 7.862a1.5 1.5 0 0 0 2.122 0 1.5 1.5 0 0 0 0-2.123l-7.86-7.86a1.5 1.5 0 0 0-1.119-.439z"
  />
</svg>
