<svg xmlns="http://www.w3.org/2000/svg" viewBox="0 0 792 612">
    <style>
    .st2 {
        fill: #f1f2f2;
    }
    </style>
    <linearGradient
    id="t"
    x1="396"
    x2="396"
    y2="456"
    gradientUnits="userSpaceOnUse"
    >
    <stop stop-color="#1F000A" offset=".006" />
    <stop stop-color="#300454" offset=".314" />
    <stop stop-color="#0066AB" offset=".993" />
    </linearGradient>
    <path style="fill: url(#t)" d="M0 0h792v456H0z" />
    <radialGradient
    id="u"
    cx="270.26"
    cy="131.05"
    r="55.541"
    gradientUnits="userSpaceOnUse"
    >
    <stop stop-color="#F1F7E6" offset="0" />
    <stop stop-color="#A3ACB1" offset=".99" />
    </radialGradient>
    <path
    d="M254 114.4c-2-9.7.2-17.7 2-24.2 1.8-6.6 4.2-11.6 5.7-14.5-27.3 5.1-47.1 28.6-47.1 55 0 30.6 25.1 55.7 55.7 55.7s55.7-25.1 55.7-55.7c-6.1 4-19.1 11.3-36 10.7-7.1-.2-18.4-.6-27-9-6.6-6.5-8.3-14.5-9-18z"
    style="fill: url(#u)"
    />
    <g xmlns="http://www.w3.org/2000/svg" style="opacity:.59">
        <path class="st2" d="M328 37.9c2.4 0 2.4-3.8 0-3.8-2.4.1-2.4 3.8 0 3.8zM486 101.5c3.2 0 3.2-5 0-5s-3.2 5 0 5zM198 68.3c1.6 0 1.6-2.5 0-2.5s-1.6 2.5 0 2.5zM267 110.3c1.6 0 1.6-2.5 0-2.5s-1.6 2.5 0 2.5zM426 282.3c1.6 0 1.6-2.5 0-2.5s-1.6 2.5 0 2.5zM516 213.3c1.6 0 1.6-2.5 0-2.5s-1.6 2.5 0 2.5zM634 298.3c1.6 0 1.6-2.5 0-2.5s-1.6 2.5 0 2.5zM739 216.3c1.6 0 1.6-2.5 0-2.5s-1.6 2.5 0 2.5zM688 147.3c1.6 0 1.6-2.5 0-2.5s-1.6 2.5 0 2.5zM775 35.3c1.6 0 1.6-2.5 0-2.5s-1.6 2.5 0 2.5zM64 298.3c1.6 0 1.6-2.5 0-2.5s-1.6 2.5 0 2.5zM43 159.3c1.6 0 1.6-2.5 0-2.5s-1.6 2.5 0 2.5zM132 82.3c1.6 0 1.6-2.5 0-2.5s-1.6 2.5 0 2.5zM77 56.9c2.4 0 2.4-3.8 0-3.8-2.4.1-2.4 3.8 0 3.8zM103 119.9c2.4 0 2.4-3.8 0-3.8-2.4.1-2.4 3.8 0 3.8zM458 83.9c2.4 0 2.4-3.8 0-3.8-2.4.1-2.4 3.8 0 3.8zM346 185.9c2.4 0 2.4-3.8 0-3.8-2.4.1-2.4 3.8 0 3.8zM164 323.9c2.4 0 2.4-3.8 0-3.8-2.4.1-2.4 3.8 0 3.8zM259 235.9c2.4 0 2.4-3.8 0-3.8-2.4.1-2.4 3.8 0 3.8z"/>
        </g>
    <linearGradient
    id="o"
    x1="-2980.2"
    x2="-2980.2"
    y1="288"
    y2="488.37"
    gradientTransform="matrix(-1 0 0 1 -2584.2 0)"
    gradientUnits="userSpaceOnUse"
    >
    <stop stop-color="#412267" offset=".005" />
    <stop stop-color="#160B45" offset="1" />
    </linearGradient>
    <path
    d="M792 379.6c-3.6-4.3-7.2-8.5-10.7-12.8.1 1 1 12.2-5.1 20.1-5.5 7.1-12.4 5.9-13.4 5.7-2.1.2-14.7 1.3-23.7-11.5-3.5-5-5.3-10.5-6.2-14.3l-16.5 12.9c-14.4-18.8-33.5-40.3-57.6-60.2-16.6-13.6-32.3-23.8-46.3-31.5-5 12.7-18.5 42.4-45.2 63-25.4 19.6-49.2 20.5-59.6 20.1-3.1-1.1-9.1-3.9-14.4-11.5-2.5-3.5-4.1-7.1-5.1-10-8.4 12.9-22.1 31-42.2 45.8-24 17.8-75.9 27.1-82.3 20.1-8.6-9.6-8.3-24.2-8.2-25.8-8.2 10-16.5 20.1-24.7 30.1-11.7-13.1-27.4-28.2-47.3-41.5-18-12.1-34.7-19.6-48.3-24.3-11.8 12.5-48.1 48.7-91.5 55.9-19.7 3.3-42.1 10.5-52.4-7.2-8.1-13.7-5-34.9-3.1-44.4-15.9 11.6-33 26.1-50.4 44.4-5.4 5.7-10.6 11.5-15.4 17.2-5.9-1.8-22-12.7-22-12.7L0 488.4s525.6-2.8 792-4.2"
    style="fill: url(#o)"
    />
    <linearGradient
    id="p"
    x1="396"
    x2="396"
    y1="327"
    y2="466.99"
    gradientUnits="userSpaceOnUse"
    >
    <stop stop-color="#372871" offset="0" />
    <stop stop-color="#190020" offset="1" />
    </linearGradient>
    <path
    d="M0 392.3c4-3.4 8-6.9 12.1-10.3-.1.7-1 8.5 5 14 5.4 4.9 12.1 4.1 13 4 2.1.2 14.3.9 23-8 3.4-3.5 5.1-7.3 6-10 5.3 3 10.7 6 16 9 14-13.2 32.6-28.2 56-42 16.1-9.5 31.4-16.6 45-22 4.9 8.9 18 29.6 44 44 24.7 13.7 47.8 14.3 58 14 3-.8 8.9-2.7 14-8 2.4-2.5 4-5 5-7 8.1 9 21.5 21.6 41 32 23.3 12.4 73.8 19 80 14 8.3-6.7 8-16.9 8-18l24 21c11.4-9.1 26.7-19.7 46-29 17.5-8.5 33.7-13.7 47-17 11.5 8.7 46.8 34 89 39 19.2 2.3 40.9 7.4 51-5 7.8-9.6 4.8-24.3 3-31 15.5 8.1 32.1 18.2 49 31 5.3 4 10.3 8 15 12 5.8-1.3 13.5-3.7 21.4-8.9 8.4-5.5 20.5-10.2 20.6-10.4V467L0 464"
    style="fill: url(#p)"
    />
    <linearGradient
    id="q"
    x1="396"
    x2="396"
    y1="392.86"
    y2="555.38"
    gradientUnits="userSpaceOnUse"
    >
    <stop stop-color="#441854" offset="0" />
    <stop stop-color="#31083B" offset=".164" />
    <stop stop-color="#220028" offset=".288" />
    <stop stop-color="#1A0020" offset=".352" />
    <stop stop-color="#1A0020" offset=".355" />
    <stop stop-color="#180424" offset=".449" />
    <stop stop-color="#161127" offset=".545" />
    <stop stop-color="#15182A" offset=".642" />
    <stop stop-color="#141B2B" offset=".743" />
    <stop stop-color="#131C2B" offset=".849" />
    </linearGradient>
    <path
    d="M.5 418c19.2-8.6 43.3-17 71.5-21.6 80.5-13.2 135.5 14 225 35.7 42.3 10.2 100.2 15.8 216 27 123 11.9 279 20.6 279 20.6v38.4S12.7 552.3 0 555.5L.5 418z"
    style="fill: url(#q)"
    />
    <linearGradient
    id="r"
    x1="396.26"
    x2="396.26"
    y1="445.88"
    y2="578.61"
    gradientUnits="userSpaceOnUse"
    >
    <stop stop-color="#441854" offset="0" />
    <stop stop-color="#31083B" offset=".164" />
    <stop stop-color="#220028" offset=".288" />
    <stop stop-color="#1A0020" offset=".352" />
    <stop stop-color="#1A0020" offset=".355" />
    <stop stop-color="#180424" offset=".449" />
    <stop stop-color="#161127" offset=".545" />
    <stop stop-color="#15182A" offset=".642" />
    <stop stop-color="#141B2B" offset=".743" />
    <stop stop-color="#131C2B" offset=".849" />
    </linearGradient>
    <path
    d="M.5 452.9c69.9 20.9 191.2 53.6 334 24.1 15.1-3.1 9.9-2.6 37-9C503 436.9 792 447.7 792 447.7v95.8c0-.7-537.3 103.9-790.3-44.6-1.6-33.2-.2-3.2-1-39.9-.1-1.8-.1-3.9-.2-6.1z"
    style="fill: url(#r)"
    />
    <linearGradient
    id="s"
    x1="396.5"
    x2="396.5"
    y1="500.7"
    y2="612.05"
    gradientUnits="userSpaceOnUse"
    >
    <stop stop-color="#441854" offset="0" />
    <stop stop-color="#31083B" offset=".164" />
    <stop stop-color="#220028" offset=".288" />
    <stop stop-color="#1A0020" offset=".352" />
    <stop stop-color="#1A0020" offset=".355" />
    <stop stop-color="#180424" offset=".449" />
    <stop stop-color="#161127" offset=".545" />
    <stop stop-color="#15182A" offset=".642" />
    <stop stop-color="#141B2B" offset=".743" />
    <stop stop-color="#131C2B" offset=".849" />
    </linearGradient>
    <path
    d="M792 500.7c-116.6 14-248.1 23.5-392.2 23.6-146.7.1-280.5-9.4-398.8-23.6v111.4h791V500.7z"
    style="fill: url(#s)"
    />
</svg>